<?xml version="1.0" encoding="UTF-8" standalone="no"?>
<svg
   xmlns:dc="http://purl.org/dc/elements/1.1/"
   xmlns:cc="http://creativecommons.org/ns#"
   xmlns:rdf="http://www.w3.org/1999/02/22-rdf-syntax-ns#"
   xmlns:svg="http://www.w3.org/2000/svg"
   xmlns="http://www.w3.org/2000/svg"
   xmlns:sodipodi="http://sodipodi.sourceforge.net/DTD/sodipodi-0.dtd"
   xmlns:inkscape="http://www.inkscape.org/namespaces/inkscape"
   width="1284.7213"
   height="1153.2241"
   viewBox="0 0 1027.7771 922.5793"
   version="1.1"
   id="svg58729"
   inkscape:version="0.48.5 r10040"
   sodipodi:docname="path39999.svg">
  <metadata
     id="metadata59011">
    <rdf:RDF>
      <cc:Work
         rdf:about="">
        <dc:format>image/svg+xml</dc:format>
        <dc:type
           rdf:resource="http://purl.org/dc/dcmitype/StillImage" />
        <dc:title></dc:title>
      </cc:Work>
    </rdf:RDF>
  </metadata>
  <defs
     id="defs59009" />
  <sodipodi:namedview
     pagecolor="#ffffff"
     bordercolor="#666666"
     borderopacity="1"
     objecttolerance="10"
     gridtolerance="10"
     guidetolerance="10"
     inkscape:pageopacity="0"
     inkscape:pageshadow="2"
     inkscape:window-width="1366"
     inkscape:window-height="740"
     id="namedview59007"
     showgrid="false"
     fit-margin-top="0"
     fit-margin-left="0"
     fit-margin-right="0"
     fit-margin-bottom="0"
     inkscape:zoom="0.39415449"
     inkscape:cx="1014.3677"
     inkscape:cy="672.14221"
     inkscape:window-x="0"
     inkscape:window-y="23"
     inkscape:window-maximized="1"
     inkscape:current-layer="svg58729" />
  <path
     d="m 440.38504,0 c 4.04,5.01 8.405,9.735 12.425,14.775 6.06,7.55 14.035,13.265 20.325,20.625 2.38,2.66 4.705,5.37 6.825,8.25 3.03,4.23 7.13,7.59 9.8,12.1 6.24,10.56 13.615,20.38 20.525,30.5 3.43,5.16 7.785,9.635 11.575,14.525 3.81,5.24 6.675,11.08 10.675,16.2 4.16,5.26 7.405,11.17 11.275,16.65 5.67,9.33 12.08,18.19 17.3,27.8 8.76,16.23 17.06,32.73 24.2,49.75 2.64,6.37 5.79,12.515 8.45,18.875 -2.05,0.59 -4.075,1.15 -6.125,1.7 -4.42,-8.32 -7.89,-17.11 -12.35,-25.4 -4.49,-8.53 -6.675,-18.08 -11.775,-26.3 -4.26,-7.81 -8.74,-15.51 -12.75,-23.45 -5.53,-10.34 -13.5,-19.035 -20.6,-28.275 -4.4,-5.64 -8.03,-11.835 -12.75,-17.225 -6.81,-7.88 -12.695,-16.545 -20.075,-23.925 -5.16,-5.58 -9.31,-11.995 -14.4,-17.625 -12.7,-14.31 -24.855,-29.09 -37.825,-43.15 -4.77,-5.86 -10.225,-11.1 -15.675,-16.3 -2.66,-2.52 -5.77,-4.51 -9.1,-6 4.02,4.66 8.905,8.495 13.075,13.025 12.26,13.75 25.26,26.845 36.7,41.325 4.7,6.21 10.305,11.67 15.175,17.75 4.64,6.33 9.99,12.14 14.6,18.5 5.86,7.77 13.015,14.525 18.175,22.825 6.23,9.11 12.18,18.395 18.15,27.675 2.39,4.05 4.02,8.54 6.65,12.45 4.93,7.44 7.825,15.93 12.325,23.6 3.54,7.16 7.095,14.315 10.725,21.425 3.86,7.56 5.8,15.925 9.35,23.625 1.16,2.61 2.385,5.195 3.075,7.975 1.37,4.86 -1.795,10.01 0.325,14.75 2.37,5.12 4.6,10.295 7.7,15.025 -1.08,3.31 -3.66,5.89 -4.85,9.15 -0.64,3.49 1.41,6.71 2.6,9.85 -2.98,5.29 -6.44,10.435 -8,16.375 -3.49,12.97 -1.41,27.6 6.2,38.75 2.25,3.45 4.33,7.015 6.85,10.275 3.17,3.93 8.4,5.015 12.3,7.975 1.75,3.2 -1.08,6.245 -2.7,8.825 -11.45,15.66 -22.175,31.83 -33.325,47.7 -4.5,6.59 -9.195,13.13 -12.475,20.45 -2.39,4.63 -3.98,9.725 -7.05,13.975 -3.96,3.62 -10.04,5.605 -11.55,11.325 -1.68,4.23 0.255,8.485 1.975,12.325 1.21,2.43 0.40496,5.14 -0.075,7.65 -3.75,16.21 -5.775,32.775 -6.825,49.375 -0.69,7.97 -2.185,15.89 -2.375,23.9 -0.38,10.8 -0.155,21.605 -1.175,32.375 -6.31,1.41 -12.815,2.395 -19.275,1.525 -11.98,-1.56 -23.77,-4.27 -35.7,-6.15 -10.07,-1.76 -20.255,-2.705 -30.275,-4.775 -1.82,-0.44 -3.73,-0.825 -5.3,-1.875 -2,-5.19 -1.115,-10.965 -2.475,-16.325 -1.31004,-9.04 -4.79,-17.485 -7.95,-25.975 7.28,1.37 14.985,2.485 22.125,-0.175 4.43,-1.48 9.17,-4.015 10.85,-8.675 0.63,-2.44 -0.04,-5.895 -2.8,-6.625 -8.79,-2.4 -17.91,-0.635 -26.85,-0.875 5.82,-2.38 12.21,-1.685 18.3,-2.625 4.93,-0.62 9.665,-2.215 14.475,-3.425 2.85,-0.84 5.98,-1.62 8.1,-3.85 0.89,-3.65 -1.955,-6.575 -4.825,-8.275 -4.34,-3.02 -9.885,-2 -14.825,-2.05 -5.76,0 -11.3,1.835 -17.05,1.875 6.75,-4.41 14.985,-4.51 22.575,-6.35 6.26,-1.5 12.945,-2.95 17.925,-7.3 5.74,-4.67 3.83,-15.14 -2.75,-18.1 -6.82,-3.12 -14.84,-4.085 -22,-1.525 -15.5,5.26 -30.525,12.97 -42.225,24.6 -3.81,2.35 -8.795,1.18 -12.875,0.1 -10.33,-3.58 -21.495,-2.12 -32.075,-0.65 -12.99,1.67 -23.72,9.76 -35.5,14.75 -0.88,-1.56 -1.73,-3.1 -2.6,-4.65 3.86,-1.67 10.25,-1.785 10.9,-7.025 0.87,-4.44 -3.465,-6.96 -5.725,-10.05 0,-0.23 0.015,-0.72 0.025,-0.95 2.43,-1.33 5.48,-1.78 7.4,-3.9 1.99,-5.31 -1.975,-10.89 -6.525,-13.4 -1.3,-1.15 -3.72,-1.57 -4,-3.5 1.54,-2.59 4.175,-4.485 5.175,-7.375 0.64,-3.64 0.585,-8.235 -2.925,-10.425 -7.15,-4.83 -16.525,-2.785 -23.425,1.475 0.69,-10.32 0.035,-20.675 -1.975,-30.825 -1.22,-9.18 -2.475,-18.455 -6.175,-27.025 -4.34,-10.48 -7.87,-21.275 -12.5,-31.625 -1.45,-3.42 -3.67,-6.615 -4.3,-10.325 1.31,-5.57 5.425,-10.2 6.075,-16 0.85,-5.94 -2.295,-11.365 -4.825,-16.475 -1.81,-3.81 -5.66,-5.955 -9.2,-7.875 -6.22,-3.37 -13.445,-4.26 -20.425,-4.05 -5.29,0.11 -10.195,2.345 -15.025,4.275 -6.54,-6.12 -10.59,-14.62 -18.25,-19.55 -4.14,-2.67 -8.45,-5.865 -13.6,-5.875 -6.14,-0.19 -12.52,1.415 -17.4,5.225 -3.98,4.3 -4.88,11.945 -11.1,13.825 -6.81,2.7 -11.56,-4.575 -17.5,-6.475 -13.42,-4.61 -29.97,-2.59 -40.25,7.75 -2.29,4.04 -3.285,8.735 -5.825,12.675 -8.85,-1.48 -18.359999,-4.11 -27.049999,-0.5 -6.42,2.22 -9.72,8.96 -11,15.2 -1.97,10.1 1.725,20.345 7.275,28.675 6.11,8.75 14.585,15.51 20.774999,24.2 3.42,4.8 5.22,10.51 6.9,16.1 0.87,2.98 1.63,6.615 -0.6,9.225 -4.26,5.1 -11.379999,5.82 -16.749999,9.25 -3.56,3.01 -4.515,8 -4.425,12.45 -0.1,5.06 2.415,9.655 5.175,13.725 5,7.16 12.939999,11.44 20.599999,15.2 7.11,2.62 14.315,6.035 22.075,5.675 6.75,-0.14 13.285,1.925 19.675,3.875 8.42,3.07 16.75,6.645 24.3,11.525 5.36,3.42 9.3,8.515 13,13.575 -3.59,0.16 -7.21,0.75 -10.8,0.3 -3.2,-1.21 -5.495,-3.99 -8.475,-5.6 -3.45,-2.13 -7.635,-2.4 -11.575,-2.05 -3.77,0.38 -6.485,3.34 -9.225,5.65 -15.09,-4.95 -31.025,-6.9 -46.875,-6.35 -14.899999,0.43 -19.314999,-0.09 -34.174999,1 -4.65,0.42 -19.305,1.78 -23.925,2.7 -6.47,1.03 -13.085,1.91 -19.475,3.3 -6.16,1.18 -8.737032,1.8862 -18.5250002,3.225 7.7103742,6.8012 10.3550002,11.36 15.9750002,17.85 3.64,4.09 9.575,10.33 13.175,14.45 6.32,7.34 11.915,13.295 19.125,19.725 5.59,4.73 10.37,10.355 16.2,14.825 8.6,6.65 18.045,12.36 28.424999,15.75 10.26,4.48 21.2,6.975 31.9,10.125 3.07,0.83 5.125,3.395 7.075,5.725 3.55114,4.46292 7.28934,9.10976 10.775,13.625 3.77789,4.89377 9.61741,10.73927 13.175,15.8 7.82978,8.3812 11.95681,12.30639 18.075,19.25 -9.86,11.46 -20.23,23.325 -34.35,29.575 -5.25,2.05 -9.285,6.155 -14.375,8.475 -8.57,3.77 -17.465,6.755 -26.425,9.475 -9.639999,2.81 -19.739999,3.285 -29.699999,3.975 -8.46,0.36 -16.825,2.455 -24.525,5.975 -5.76,2.77 -11.14,7.195 -13.8,13.125 -1.46,6.28 3.435,11.42 6.825,16.1 4.37,6.03 11.22,10.77 12.85,18.4 -0.14,4.91 -3.64,9.015 -7.2,12.075 -5.4,4.37 -12.31,6.2 -18.1,9.95 -9.37,5.87 -19.805,10.365 -27.7250002,18.275 -3.43,3.31 -5.78000004,7.85 -5.75000004,12.7 -0.4,5.94 2.66500004,11.6 7.12500004,15.35 5.9300002,4.95 11.7750002,10.59 19.4250002,12.7 7.49,2.5 15.45,2.64496 23.25,3.27496 0.73,13.09424 10.155,23.68968 20.275,31.05008 6.99,5.28984 16.09,5.5 24.45,6 7.869999,-0.55656 15.004999,-4.42504 22.624999,-6.12504 4.18,3.52 7.8,7.77 12.6,10.5 4.6,2.65 9.495,4.79312 14.475,6.62504 7.71,2.95576 16.22,0.20496 23.25,-3.32504 9.17,-5.82 16.155,-14.29488 22.925,-22.62504 4.05,4.08192 8.305,10.03504 14.925,8.62504 10.25,-0.25 18.055,-7.86 23.325,-15.95 3.63,-4.81 4.2,-11 6.4,-16.45 3.17,-8.01 7.575,-15.47496 10.425,-23.62504 3.54,-10.6154 7.425,-21.21996 9.075,-32.34996 0.85,-7.77 1.45,-15.565 1.7,-23.375 2.99,4.36 7.445,8.615 13.175,8.075 5.33,-0.66 11.97,-1.175 14.9,-6.425 3.72,-7.69 4.435,-16.54 3.025,-24.9 2.98,-2.56 7.52,-4.665 7.75,-9.125 0.37,-7.38 0.185,-15.08 -2.825,-21.95 -1.23,-2.87 -2.73,-5.61 -4,-8.45 8.84,0.57 16.16,6.075 24.5,8.425 8.59,2.56 16.965,5.84 25.725,7.85 10.24,2.02 20.51,4.395 31,4.675 10.97,0.17 21.985,0.955 32.925,-0.325 7.91,-0.92 15.91,-1.13 23.75,-2.6 6.21,-1.09 12.02,-3.69 17.8,-6.1 1.71,-0.65 2.91,-2.03 4.05,-3.4 5.8,3.1 12.455,3.63 18.875,4.3 7.04,0.73 14.165,0.18 21.125,-1.05 6.65,-1.18 11.95,-6.495 14.45,-12.575 0.7,-1.7 -0.295,-4.315 -2.325,-4.375 -5.72,-0.82 -11.345,1.11 -16.875,2.3 -6.43,1.65 -13.125,1.75 -19.725,1.75 0.16,-0.88 0.33,-1.74 0.5,-2.6 9.68,-1.35 19.2,-3.98 28,-8.3 3.39,-1.84 6.655,-4.66 7.725,-8.5 -0.73,-5.46 -8.05,-5.83 -11.85,-3.45 -6.9,4.13 -14.575,6.685 -22.275,8.875 -2.44,0.73 -5.005,0.825 -7.525,0.825 4.86,-9 15.615,-12.06 22.375,-19.25 1.72,-1.81 1.875,-4.525 1.325,-6.825 -2.82,-4.38 -8.85,-4.785 -13.35,-3.225 -2.75,2.64 -4.445,6.205 -7.125,8.925 -10.7,11.51 -19.915,25.49 -34.775,32.05 -14.01,5.2 -29.52,6.98 -44.25,4.1 -4.02,-0.71 -7.82,-2.33 -11.15,-4.7 7.91,-4.77 16.65,-8.095 24.2,-13.475 6.94,-5.4 12.92,-12.1 17.2,-19.8 3.54,-6.42 7.755,-12.51 10.475,-19.35 2.39,-5.73 4.75,-11.475 6.55,-17.425 0.78,-2.05 1.2,-4.715 3.6,-5.475 11.55,-4.68 23.545,-9.77 36.275,-9.2 10.67,0.07 20.87,4.125 30,9.375 2.65,1.34 4.275,3.88 5.575,6.45 4.23,8.05 9.97,15.225 16.3,21.725 4.21,4.24 7.1,10.215 6.7,16.275 -3.43,2.57 -7.8,4.255 -9.75,8.375 -4.25,8.08 -5.985,17.84 -3.525,26.75 0.67,2.36 1.47,5.02 3.75,6.35 5.89,3.68 12.88,4.97 19.1,7.95 2.51,0.95 3.225,3.715 4.125,5.975 1.52,4.43 3.115,8.87 4.175,13.45 1.44,6.32 -1.205,12.825 0.425,19.125 1.29,3.67 4.655,6.115 6.025,9.775 2.68,6.93 5.145,13.975 8.375,20.675 3.99,7.78 5.81,16.43 9.7,24.25 3.22,6.31 4.38,13.38 7.05,19.9 3.01,7.58 6.255,15.06 9.475,22.55 1.74,4.19 4.38,8.09312 5.2,12.62504 0.18,4.98984 -1.02,10.0596 0.3,15 2.82,10.30576 6.85,20.66496 14.15,28.67496 5.68,5.89 12.675,10.27 19.775,14.25 4.76,2.79 9.695,5.72 15.325,6.25 4.65,0.37 9.3,1.1 13.7,2.75 7.64,2.95 16.11,2.27 23.8,5.05 9.37,3.41 19.485,1.91 29.225,2.65 10.65,1 21.325,1.69 32.025,1.75 12.7,0.36 25.21,-2.65 37.4,-5.9 11.83992,-2.1 24.28,-1.87 35.5,-6.7 7.83992,-3.33 16.57,-3.03 24.7,-5.3 18.67992,-4.97 35.43992,-14.82 52.6,-23.4 9.32,-5.32 19.5852,-8.7748 28.82496,-14.22504 5.64424,-3.18984 9.57504,-8.50496 14.92504,-12.07496 6.8,-4.85 13.38992,-9.95 20.15,-14.85 7.36,-5.91 13.73472,-12.98 19.67504,-20.3 7.18984,-8.86 14.87,-17.41496 20.7,-27.275 6.93982,-13.23 13.12972,-27.165 15.30002,-42.075 3.0934,-13.5 0.8249,-27.835 -4.8751,-40.325 -4.44,-8.39 -9.88508,-16.745 -18.12492,-21.825 -3.01016,-1.95 -6.3696,-3.54 -8.75008,-6.3 -3.05576,-3.43 -4.60992,-7.875 -6,-12.175 7.89424,-2.61 16.13,-4.075 24,-6.775 9.5602,-3.08 18.4203,-7.935 27.2,-12.725 2.5319,-3.25 5.245,-7.715 3.475,-11.925 -2.9,-7.99 -6.26,-15.81 -9.75,-23.55 -2.66,-5.27 -4.4851,-10.99 -7.9749,-15.8 -5.0703,-6.97 -8.4351,-14.96 -12.52506,-22.5 -10.23,-19.61 -19.72528,-39.615 -27.87496,-60.175 -5.55656,-11.83 -11.36976,-23.605 -15.65008,-35.975 5.54424,0.26 11.64008,1.225 16.6,-1.925 4.50656,-2.99 7.56,-8.08 8.15008,-13.45 0.67968,-4.76 2.03976,-9.375 3.2,-14.025 0.45576,-1.59 0.78976,-3.455 2.3,-4.425 3.31808,0 7.29496,1.065 9.02496,4.175 1.41,3.83 0.76,8.44 -1.75,11.7 -1.97,2.57 -4.29456,4.845 -6.42504,7.275 2.12032,1.37 4.43048,3.865 7.2,2.575 4.98192,-1.93 10.4698,-3.035 14.8501,-6.225 4.6398,-4.14 8.4804,-9.53 10.0499,-15.6 0.8819,-5.85 0.725,-11.81 0.475,-17.7 -0.07,-8.04 -4.94,-15.49 -11.35,-20.05 -6.09996,-4.31 -13.98996,-3.785 -21.04996,-3.275 -7.35,0.98 -11.80544,7.715 -15.12496,13.675 -4.69424,7.63 -6.46504,16.765 -11.97504,23.925 -3,3.35 -7.37528,5.79 -11.92496,5.85 -2.87032,0.32 -3.09008,-3.25 -4,-5.15 -2.86016,-7.02 -3.89504,-14.65 -7.17504,-21.5 -3.92,-9.16 -7.12,-18.585 -10.25,-28.025 -2.74,-6.71 -4.8,-13.64 -6.4,-20.7 -1.55,-7.06 -4.90472,-13.505 -6.72504,-20.475 -2.18984,-7.33 -4.74496,-14.545 -6.77496,-21.925 -1.41,-5.37 -3.64,-10.505 -6.95,-14.975 -3.49,-4.77 -6.5,-10.585 -12.3,-12.875 -5.55,-2.46 -11.72,-6.12 -17.9,-3.55 -4.8,2.55 -6.75472,8.11 -9.37504,12.55 -3.16808,6.91 -8.32016,12.585 -11.84992,19.275 -8.19424,14.21 -16.98504,28.08 -26.47504,41.45 -9.64,12.3 -18.88,24.94 -27.15,38.2 -15.41996,-8.73 -29.14,-20.145 -43.3,-30.725 -5.42,-3.88 -12.06,-5.63 -17.4,-9.65 -4.48996,-3.35 -9.42,-5.985 -14.25,-8.775 -8.42,-5.72 -17.93,-9.41 -27.1,-13.7 -8.18,-2.93 -15.23,-8.09 -22.65,-12.45 -5.03,-2.99 -11.85,-3.595 -15.15,-8.975 -2.14,-2.62 -0.77,-6.04 -0.4,-9 0.94,-4.68 1.02,-9.475 1.15,-14.225 5.89,0.93 12.33,1.955 17.85,-1.025 8.51,-4.39 16.52,-9.975 23.2,-16.875 2.87,-2.64 1.86,-6.835 1.4,-10.225 -1.73,-8.77 -4.8,-17.235 -5.95,-26.125 -0.86,-0.03 -1.71,-0.08 -2.55,-0.1 -3.11,7.32 -5.64,15.2 -11.35,21 -5.36,5.64 -11.6,11.365 -19.5,12.875 -0.56,-3.7 -0.585,-7.895 -3.325,-10.775 -5,-5.56 -11.36,-9.695 -18,-13.025 -3.88,-1.93 -6.315,-5.69 -9.825,-8.1 -2.53,-1.8 -5.475,-2.855 -8.325,-3.975 0.7,-2.36 1.84,-4.7 1.75,-7.2 -1.72,-4.5 -4.585,-9 -9.125,-11.05 -3.59,-1.97 -8.44,-2.885 -10.1,-7.125 -6.83,-13.85 -11.82,-28.525 -18.55,-42.425 -5.77,-12.29 -12.56,-24.16 -21.15,-34.7 -6.1,-8.25 -10.56,-17.55 -15.75,-26.35 -6.21,-10.18 -13.46,-19.685 -21.15,-28.775 -5.66,-8.08 -10.655,-16.625 -16.575,-24.525 -5.36,-7.18 -10.345,-14.785 -17.325,-20.525 -6.37,-5.05 -10.63,-12.105 -16.15,-17.975 -6.08,-7.24 -13.815,-12.83 -19.975,-20 -3.14,-3.5 -5.97,-7.28 -9.2,-10.7 l -3.2,0 z m 162.95,235.35 c 0.48458,6.2e-4 0.96562,0.0175 1.45,0.05 0.57,3.6 1.11,7.2 1.2,10.85 -5.95,1.87 -12.325,0.495 -18.225,2.575 -1.01,-1.31 -2.015,-2.61 -3.025,-3.9 4.13438,-6.04687 11.33122,-9.58434 18.6,-9.575 z m 0.15,15.8 c 1.21807,-0.0189 2.45625,0.07 3.675,0.25 1.9,8.33 2.81,16.87 3.05,25.4 -7.13,-6.47 -14.59,-12.69 -21,-19.9 3.85938,-3.7375 8.9967,-5.66811 14.275,-5.75 z m 14.95,7.075 c 3.44,2.11 7.265,4.215 9.325,7.825 -0.36,3.92 -1.805,7.62 -2.775,11.4 -1.37,4.83 -1.97,9.85 -3.45,14.65 -0.82,0.2 -2.455,0.6 -3.275,0.8 -1.79,-4.43 -2.32,-9.21 -2.25,-13.95 0.06,-5.34 -1.17,-10.61 -0.8,-15.95 0.06,-2.08 2.045,-3.305 3.225,-4.775 z m 68.225,8.575 c 1.22,6.85 4.82496,15.06 -0.025,21.3 -5.17,6.07 -11.26,12.27 -19.4,13.9 -5.56,0.96 -12.035,1.125 -16.525,-2.875 1.17,-2.69 1.97,-5.785 4.2,-7.825 4.8,-1.26 10.11,-1.52 14.15,-4.75 7.07,-5.4 11.85,-13.1 17.6,-19.75 z m -93.15,1.85 c 1.86,0.1 2.91,2.045 4.15,3.225 3.08,3.9 6.385,7.615 9.625,11.375 3.32,3.84 4.71,8.94 4.75,13.95 -1.39,0.17 -2.76,0.44 -4.15,0.45 -4.22,-3.94 -7.165,-8.97 -10.375,-13.7 -2.19,-3.23 -5.545,-5.35 -8.125,-8.2 -0.71,-2.75 1.375,-6.21 4.125,-7.1 z m 41.1,1.975 c 5.8,1.92 9.795,6.715 14.375,10.475 -1.29,5.68 -3.56,12.305 -9.35,14.775 -3.85,1.22 -8.195,2.96 -12.075,0.95 4.58,-8.16 2.17,-18.18 7.05,-26.2 z m -432.2,14.175 c 0.7333,-0.0162 1.43875,-0.004 2.15,0 9.2,0.56 16.44,7.55 21.35,14.8 3.07,5.57 5.71,11.4 7.95,17.35 3.6,5.74 4.84,12.52 7.85,18.55 1.4,-2.26 3.645,-4.56 3.025,-7.45 -1.05,-4.94 -3.44,-9.475 -4.8,-14.325 3.44,-2.59 7.84,-3.145 11.9,-4.175 5.44,-0.67 10.8,1.285 15.8,3.225 4.71,1.89 8.96,5.885 9.45,11.175 0.15,6.94 -4.45,12.525 -7.55,18.325 -1.2,2.24 -0.155,4.705 1.075,6.675 2.9,4.84 5.535,9.84 7.725,15.05 3.91,8.86 9.235,17.15 11.975,26.5 1.92,5.9 4.435,11.635 5.575,17.775 2,11.49 3.78,23.045 4.15,34.725 -0.02,2.37 0.74,4.62 1.6,6.8 0.67,-0.01 2.015,-0.015 2.675,-0.025 1.85,-1.74 3.535,-3.725 5.725,-5.025 4.17,-0.74 9.165,-0.845 12.475,2.225 2.14,1.89 2.055,6.055 -0.725,7.325 -4.14,2.09 -8.68,3.27 -12.95,5.05 -0.05,0.53 -0.15,1.595 -0.2,2.125 4.06,0.87 8.265,1.6 12.025,3.45 2.53,1.47 3.93,4.13 5,6.75 -3.88,3.11 -8.25,5.45 -12.5,8 -1.34,0.7 -2.05,2.085 -2.8,3.325 3.87,0.79 8.605,-0.665 11.675,2.475 1.32,1.08 1.94,2.725 2.65,4.225 -3.36,1.72 -6.945,2.91 -10.575,3.9 -0.9,-1.12 -1.815,-2.235 -2.725,-3.325 -0.41,5.84 2.815,11.075 4.275,16.575 -8.18,5.92 -17.15,10.635 -26.15,15.175 -7.27,4.24 -15.05,7.855 -23.4,9.275 -5.9,0.61 -11.88,0.485 -17.8,0.425 1.92,-3.09 4.25,-5.895 5.95,-9.125 1.77,-3 -1.505,-6.9 -4.675,-6.9 -3.5,0.71 -6.605,2.615 -9.725,4.275 2.97,-4.5 5.58,-9.32 9.55,-13.05 2.14,-2.28 5.02,-4.21 5.85,-7.4 0.98,-2.72 0.11,-6.405 -2.6,-7.775 -3.26,-1.29 -7.225,-2.005 -10.325,0.125 -7.64,4.32 -9.595,13.565 -14.575,20.175 0.65,-5.3 1.575,-10.78 4.425,-15.4 3.09,-5.4 7.535,-9.885 10.625,-15.275 1.57,-2.7 -1.16,-5.1 -3.1,-6.6 -2.6,-1.76 -5.745,-3.755 -9.025,-2.825 -4.96,1.46 -9.905,3.95 -12.825,8.4 -3.88,4.72 -4.945,10.835 -7.175,16.375 -3.65,-2.45008 -8.215,-4.29504 -10.175,-8.52504 -4.83,-9.98 -14.905,-15.63 -23.975,-21.2 -13.99,-6.32 -28.31,-11.94 -42.8,-17 -11.17,-2.76 -22.625,-6.185 -31.825,-13.375 -4.429999,-3.26 -7.019999,-8.47 -8.099999,-13.75 -1.08,-4.67 3.48,-8.94 7.899999,-9.25 5.06,-0.55 11.055,-1.675 13.925,-6.375 2.01,-4.93 1.14,-10.51 0.05,-15.55 -4.36,-13.01 -15.09,-22.105 -23.049999,-32.825 -6.85,-7.81 -12.42,-16.955 -15,-27.075 -0.98,-3.7 0.285,-7.945 3.425,-10.225 11.05,-6.94 26.024999,-8.335 37.474999,-1.525 12.41,6.23 24.565,14.085 32.425,25.825 2.33,-1.05 4.765,-1.99 6.775,-3.6 1.7,-1.37 1.345,-3.805 1.725,-5.725 -6.02,-2.19 -11.62,-5.355 -17.35,-8.175 -5,-2.44 -8.275,-7.255 -13.275,-9.675 -1.94,-1.2 -4.46,-1.795 -5.8,-3.725 0.81,-3.86 2.425,-7.545 4.425,-10.925 2.2,-2.86 5.32,-4.82 8.25,-6.85 3.74,-2.67 8.56,-1.72 12.85,-1.85 7.19,-0.19 14.475,1.94 20.125,6.45 2.81,1.97 5.27,4.85 8.8,5.5 2.62,-0.13 5.39,-1.26 7.05,-3.35 2.35,-4.4 0.115,-10.275 3.775,-14.125 3.465,-4.1125 8.9669,-4.91194 14.1,-5.025 z m 392.725,7.7 c 2.33062,-0.10875 4.9075,1.9325 4.15,4.4 -1.8,5.6 -3.83,11.205 -4.25,17.125 -0.26,4.18 1.965,7.945 4.075,11.375 3.44,5.23 7.705,10.58 14.075,12.2 5.31,2.22 12.01,0.415 16.5,4.575 0.05,0.43 0.135,1.295 0.175,1.725 -6.2,5.7 -15.09,6.435 -23.1,5.775 -3.53,-0.58 -7.48,-1.12 -10.1,-3.8 -6.29,-6.56 -10.98,-14.845 -12.45,-23.875 -0.59,-7.38 1.185,-14.71 3.825,-21.55 1.08,-2.69 2.585,-5.345 4.975,-7.075 0.5925,-0.5775 1.34813,-0.83875 2.125,-0.875 z m 24.375,7 c 3.56,0.1 7.575,0.48 9.775,3.7 3.69,4.18 1.345,10.765 -2.075,14.375 -2.68,1.39 -5.775,1.655 -8.575,2.725 -3.59,1.11 -6.38,3.7 -9.2,6.05 -5.93,-5.17 -7.845,-14.395 -4.575,-21.525 2.12,0.86 4.26,1.925 6.6,1.975 4.27,0.41 5.81,-4.58 8.05,-7.3 z m 24.975,1.45 c 2.84,6.24 2.35,13.72 0,20.05 -2.83,-0.86 -5.6,-1.87 -8.4,-2.8 0.9,-4.84 0.725,-9.775 0.675,-14.675 2.58,-0.84 5.125,-1.735 7.725,-2.575 z m 229.175,10.675 c 2.94,0.11 5.97,0.135 8.8,1.075 3.68,6.17 4.32,13.61 7.2,20.15 5.35,11.82 9.55496,24.08 13.57496,36.4 2.92032,7.23 5.76504,14.495 7.97504,21.975 5.23,12.41 8.38,25.56 13.25,38.1 2.44,4.83 4.19,9.925 5.85,15.075 3.19,8.07 5.98512,16.305 9.32496,24.325 2.31016,6.02 3.04504,12.7 6.92504,18.05 5.2,10.29 10.74,20.44 15.2,31.1 2.43,6.05 5.8548,11.63 8.22504,17.7 1.74344,4.55 4.95496,8.325 6.92496,12.775 1.74,3.94 3.34,7.98 5.55,11.7 2.94,5.04 4.45,10.72 6.9,16 4.32,9.02 7.75,18.475 12.74996,27.175 4.75,11.64 10.1048,23.02 15.6751,34.3 1.7557,2.87 -1.0051,5.305 -3.5251,6.225 -5.23,2.12 -10.0952,5.28 -15.67492,6.45 -4.35656,0.98 -8.54992,2.5 -12.65008,4.2 -11.26808,5.23 -23.64496,7.15 -35.52496,10.5 -11.6,2.26 -22.9152,5.87 -34.62496,7.5 -7.53192,0.99 -14.80504,3.31 -22.32504,4.3 -7.24,0.88 -13.99456,3.765 -21.12504,5.125 -10.53984,2.14 -21.09496,4.83 -31.92496,4.65 -3.23,-0.19 -5.73,2.3 -8.85,2.6 -4.36,0.39 -8.75,0.255 -13.1,0.725 -2.5,-4.34 -4,-9.15 -6.05,-13.7 -7.35,-17.67 -14.3,-35.54 -20.2,-53.75 -1.05,-3.57 -3.66,-6.29 -5.3,-9.55 -2.46,-6.37 -5.07,-12.7 -6.9,-19.3 -4.67,-12 -8.795,-24.195 -12.675,-36.475 -6.31,-15.75 -11.8,-31.82 -17.05,-47.95 -1.17,-3.3 -2.725,-6.54 -3.125,-10.05 1.05,-2.24 2.75,-4.11 3.8,-6.35 3.44,-8.06 8.525,-15.325 14.475,-21.725 6.14,-6.78 10.89,-14.635 15.7,-22.375 6.75004,-10.07 16.715,-17.835 21.875,-28.975 3.87,-7.79 8.88,-14.95 14.4,-21.65 4.08,-5.13 7.02,-11.025 10.55,-16.525 3.03,-4.89 6.42,-9.54 9.8,-14.2 2.88,-3.87 4.70496,-8.43 7.87496,-12.1 3.27032,-3.85 6.2,-7.975 8.6,-12.425 3.47032,-6.41 7.96016,-12.19 11.5,-18.55 2.47032,-4.29 5.45504,-8.235 7.92504,-12.525 z m -691.675,2.5 c -1.00762,-0.0261 -2.1,0.4375 -3.05,0.7 2.64,4.69 8.815,8.72 6.975,14.8 -0.32,2.63 -3.545,6.485 -0.025,8.075 3.88,0.18 7.505,-1.705 11.275,-2.375 3.67,-1.1 7.595,-0.565 11.275,-1.525 1.41,-2.89 -1.135,-6.48 -3.525,-8.2 -2.62,-0.76 -5.365,0.63 -8.025,0.05 -5.45,-2.16 -8.825,-7.22 -13.225,-10.8 -0.51,-0.50625 -1.07043,-0.70935 -1.675,-0.725 z m 449.225,8.2 c 4.79585,0.0332 9.60625,1.6175 13.25,4.725 3.46,3.53 4.925,8.43 7.125,12.75 3.27,6.57 4.065,13.995 4.325,21.225 0.3,2.52 -1.935,4.125 -3.375,5.825 -1.28,-0.97 -2.945,-1.59 -3.725,-3.05 -4.01,-8.31 -5.055,-18.43 -12.025,-25.05 -2.71,-2.29 -5.005,-5.035 -7.825,-7.175 -4.5,-0.69 -9.09,1.93504 -13.55,0.025 1.16,-4.38 5.615,-6.55 9.375,-8.35 2.0625,-0.64062 4.24507,-0.94007 6.425,-0.925 z m 237.3,16.3 c -2.73,6.13 -5.64504,12.21 -9.77504,17.55 -3.11808,3.87 -4.65992,8.665 -7.3,12.825 -6.21808,8.19 -10.66016,17.63 -17.64992,25.25 -6.74216,10.55 -13.53992,21.1 -20.75008,31.35 -2.91808,3.79 -2.93008,9.38 -0.54992,13.45 4.07968,7.78 7.07968,16.1 9.6,24.5 3.34784,9.79 7.28496,19.425 9.47496,29.575 0.5,2.97 1.98,5.615 3.95,7.875 3.84,-1.67 5.80472,-5.515 8.57504,-8.425 5.31808,-5.68 10.59496,-11.39 15.77496,-17.2 3.64,-4.37 7.92488,-8.18 11.12504,-12.9 3.52968,-5.07 8.56008,-8.8 12.34992,-13.65 7.73192,-8.92 12.19976,-20.54 21.55008,-28.05 -1.23192,-4.58 -2.40504,-9.15 -3.52504,-13.75 -1.18,-5.03 -4.28,-9.375 -5.25,-14.475 -2.64,-11.86 -7.92528,-22.835 -12.02496,-34.225 -2.07032,-5.9 -5.48504,-11.36 -6.32504,-17.65 -3.08,-0.74 -6.16,-1.42 -9.25,-2.05 z m -207.6,9.175 c 4.47,1.28 9.39,3.81 11,8.45 0.35,6.95 1.27,14.03 -0.3,20.9 -2.9,10.5 -12.41,18.5 -23.15,19.95 -6.75,-0.27 -13.055,-2.915 -19.425,-4.875 -5.54,-1.89 -11.2,-4.15 -15.45,-8.3 -2.67,-2.58 -3.995,-6.125 -5.225,-9.525 4.88,1.58 11.63,5.27 15.55,0 3.08,-6.1 2.5,-13.66 0.05,-19.9 4.61,-1.47 9.17,-4.565 14.2,-3.525 1.72,7.7 3.565,15.4 5.475,23.05 2.55,2.58 6.625,3.58 10.075,2.3 3.8,-1.43 7.985,-3.205 10.125,-6.875 0.88,-2.76 0.425,-5.69 -0.175,-8.45 -1.02,-4.37 -1.77,-8.82 -2.75,-13.2 z m -42.775,6.45 c 0.76,4.1 1.16,8.36 0.1,12.45 -0.75,2.39 -4.455,4.25 -6.275,1.85 -2.94,-3.59 -3.535,-8.43 -5.025,-12.7 3.67,-0.91 7.43,-1.42 11.2,-1.6 z m 253.375,2.825 c 6.1,8.62 8.92496,18.935 13.42496,28.375 1.76016,3.84 2.65504,8 4.12504,11.95 1.82,5.25 4.38,10.25 5.6,15.7 0.93,3.34 -1.47,6.205 -3.15,8.825 -3.52,4.99 -5.92488,10.655 -9.47504,15.625 -7.21808,10.27 -16.29016,19.055 -24.24992,28.725 -2.78192,3.75 -5.57504,7.54 -9.37504,10.35 -4.18,-3.68 -7.40512,-8.28 -11.22496,-12.3 -8.44192,-9.9 -17.79504,-20.365 -19.27504,-33.875 -0.48,-1.69 0.97,-2.92 1.85,-4.15 8.41,-9.79 14.37496,-21.425 22.97496,-31.075 3.64192,-4.07 6.68504,-8.63 10.27504,-12.75 6.86,-7.96 11.17,-17.82 18.5,-25.4 z m -181.9,4.95 c 1.64,0.29 3.28,0.59 4.85,1.2 9.17,3.64 18.15,7.95 26.25,13.6 2.62,1.84 5.595,3.055 8.375,4.625 4.25,2.24 7.79,5.6 11.9,8.1 11.45,6.97 21.265,16.245 32.575,23.425 4.32,3.66 9.36128,6.695 12.82504,11.225 -0.10008,3.01 -2.61004,5.145 -4.15004,7.525 -6.18,-6.93 -12.165,-14.125 -19.425,-19.975 -1.87,-1.75 -4.5,-1.555 -6.85,-1.575 -4.42,7.37 -9.915,13.985 -15.375,20.575 5.83,6.26 11.495,12.69 16.425,19.7 2.36,3.38 4.805,6.72 7.725,9.65 -1.38,2.27 -2.655,4.655 -4.575,6.525 -0.97,0.14 -1.72,-0.175 -2.25,-0.975 -2.43,-2.68 -4.13,-5.9 -6,-8.95 -4.22,-7.26 -10.01,-13.4 -14.95,-20.15 -1.36,-1.6 -2.86,-4.09 -5.35,-3.3 -4.59,1.17 -8.43,4.155 -12.65,6.175 -8.94,4.4 -17.125,10.36 -26.575,13.7 -3.42,1.36 -6.535,3.38 -9.875,4.9 -3.11,1.43 -6.555,1.93 -9.625,3.45 -3.84,1.87 -7.665,3.82 -11.775,5.05 -6.78,1.93 -12.88,5.69 -19.75,7.35 -2.47,0.77 -5.435,0.965 -7.175,3.125 -0.73,9.16 -0.08,18.37 -0.4,27.55 -0.17,4.1 0.065,8.22 0.525,12.3 0.82,6.7 0.48,13.49 1.15,20.2 0.32,2.98 2.51,6.835 6,6.275 10.06,-0.68 19.45,-4.555 29,-7.475 9.06,-2.89 17.695,-6.95 26.625,-10.2 10.41,-4 19.685,-10.255 29.425,-15.575 2.92,-1.58 5.675,-3.69 8.975,-4.4 3.46,0.64 4.875,4.46 5.825,7.45 -5.66,2.41 -10.585,6.275 -16.425,8.275 -5.93,2.13 -11.45,5.705 -17.85,6.275 -2.76,0.33 -4.85,2.45 -7.3,3.55 -17.89,8.57 -36.035,16.735 -54.925,22.875 -9.75,1.61 -19.24,4.365 -28.85,6.625 -8.46,2.64 -16.87,5.495 -25.55,7.325 -2.34,0.62 -6.295,1.33 -5.775,4.6 0.66,8.1 0.39,16.24 0.8,24.35 0.74,6.95 -0.625,13.865 -0.275,20.825 0.41,4.59 -2.975,8.055 -5.975,11.025 -3.11,-14.74 -1.195,-30.01 -3.125,-44.9 -0.57,-4.13 0.085,-8.43 -1.125,-12.45 -2.81,-1.79 -6.35,-0.4 -9.45,-0.45 -4.51,0.82 -8.51,-1.845 -12.9,-2.175 -3.18,-0.43 -6.355,0.11 -9.425,0.9 0.03,3.48 -0.085,6.97 -0.275,10.45 -3.69,0.94 -7.41,1.79 -11.2,2.15 0.02,-11.37 0.32,-22.74 0.6,-34.1 1.64,-15.56 3.255,-31.19 6.875,-46.45 1.7,-9.3 5.155,-18.145 7.825,-27.175 0.58,-1.71 -1.215,-2.885 -1.925,-4.225 -2.51,-3.35 -4.38,-8.56 -1.4,-12.2 1.53,-2.17 4.465,-0.8 6.625,-0.75 2.73,-8.5 6.545,-16.655 11.675,-23.975 3.92,-7.12 6.91,-14.765 11.55,-21.475 2.1,-2.88 4.595,-5.445 6.675,-8.325 2.78,-3.63 5.5,-7.645 9.75,-9.675 0.72,1.84 1.955,3.595 2.075,5.625 -2.83,5.2 -8.195,8.42 -11.125,13.55 -2.26,4.04 -5.27,7.635 -7.35,11.775 -5.95,12.87 -13.7,24.99 -17.9,38.6 2.84,1.4 5.765,2.65 8.825,3.5 4.49,1.16 8.385,4.175 13.125,4.425 5.29,0.38 10.615,1.265 15.925,0.575 4.22,-0.49 8.525,-0.78 12.725,0.05 5.49,1.56 10.985,-1.205 15.675,-3.775 2.01,-4.35 1.825,-9.29 2.825,-13.9 1.56,-10.45 3.855,-20.785 6.625,-30.975 2.12,0.11 4.27,0.225 6.4,0.375 -0.46,7.81 -2.85,15.375 -2.85,23.225 0.01,5.35 -1.4,10.58 -1.65,15.9 -0.34,2.31 2.355,2.74 3.825,3.75 2.46,-2.16 5.18,-4.185 8.5,-4.725 8.48,-1.76 16.18,-6.27 24.85,-7.25 4.06,-0.5 7.085,-3.52 10.675,-5.2 8.68,-4.25 17.025,-9.19 25.925,-13 6.53,-3.72 12.735,-8.355 20.325,-9.675 -1.66,-3.4 -3.77,-6.605 -6.65,-9.075 -5.6,-5.1 -10.265,-11.075 -15.275,-16.725 -3.89,-3.84 -8.17,-7.255 -12.5,-10.575 -0.05,-1.49 -0.105,-2.995 -0.125,-4.475 1.65,0.84 3.33,1.675 4.8,2.825 10.31,8.66 20.815,17.19 29.875,27.2 2.38,2.62 4.065,5.74 5.725,8.85 1.44,-0.48 3.16,-0.725 4.05,-2.125 3.83,-5.16 6.63,-10.985 9.15,-16.875 0.29,-1.11 1.11,-2.3 0.65,-3.45 -4.37,-5.58 -11.46,-7.73 -16.55,-12.45 -9.92,-8.67 -21.465,-15.29 -33.575,-20.4 -2.22,-1.05 -4.73,-1.715 -6.55,-3.425 -0.42,-1.35 -0.565,-2.77 -0.775,-4.15 z m -8.625,4.825 c 1.09,0.88 1.985,1.975 2.325,3.375 1.2,4.18 3.335,8.265 2.975,12.725 -0.1,4.72 -3.39,8.465 -4.5,12.925 -1.59,6.36 -6.765,11.2 -12.625,13.75 -5.51,2.44 -11.33,5.1 -17.5,4.5 -7.89,-0.69 -15.96,-0.335 -23.65,-2.525 -6.32,-1.66 -11.65,-5.58 -17.1,-9 -3.28,-2.27 -6.855,-4.475 -9.025,-7.925 -2.46,-4.95 -1.38,-10.66 -0.4,-15.85 5.55,6.73 10.765,14.36 18.575,18.65 8.06,4.25 17.455,4.69 26.375,4.2 11.08,-2.19 23.15,-6.415 29.05,-16.825 3.71,-5.33 4.12,-11.87 5.5,-18 z m 12.85,8.1 c 4.12,1.75 7.555,4.68 10.925,7.55 -3.94,-2.06 -8.1,-3.69 -12.15,-5.5 0.3,-0.51 0.915,-1.54 1.225,-2.05 z m 38.05,26.075 c 1.71166,-0.0626 3.39062,0.2325 4.9,1.125 0.7,2.19 -0.17,4.94 -2.4,5.85 -3.2,-1.41 -5.735,-3.96 -8.925,-5.4 1.96875,-0.79875 4.22429,-1.4945 6.425,-1.575 z m -38.525,2.175 c 2.18,0.11 4.85,-0.425 6.25,1.725 5.12,5.88 11.62,10.515 16.05,17.025 -3.25,2.41 -6.725,4.54 -10.525,5.95 -1.65,-4.07 -3.27,-8.17 -5.35,-12.05 -2.18,-4.2 -5.085,-8.05 -6.425,-12.65 z m -3.9,3.525 c 4.25,7.79 9.12,15.385 12,23.825 -5.98,3.87 -12.125,8.125 -19.275,9.375 -2.45,-6.13 -4.685,-12.405 -5.825,-18.925 0.39,-1.74 2.28,-2.535 3.5,-3.675 3.97,-2.77 6.77,-6.77 9.6,-10.6 z m -86.9,2.625 c 1.92,0.75 3.68,1.87 5.1,3.4 -2.07,0.52 -4.145,0.95 -6.225,1.35 0.35,-1.59 0.715,-3.18 1.125,-4.75 z m 154.95,8.65 c 3.54,2.4 6.36,5.64 9.25,8.75 3.61,3.89 7.76,7.23 11.8,10.65 -0.83,2.39 -2.06,4.615 -3.45,6.725 -4.64,-2.94 -7.23,-7.94 -10.85,-11.9 -2.97,-3.43 -7.055,-5.54 -10.625,-8.25 1,-2.17 2.305,-4.175 3.875,-5.975 z m 235.45,0.05 c 3.63176,-0.0438 7.24516,0.51 10.57496,1.95 5.5102,5.41 8.3502,13.3 7.7,21 0.5411,7.75 -2.265,15.53 -7.425,21.3 -2.03,2.23 -4.94996,3.23 -7.69996,4.2 1,-6.06 2.9952,-12.255 1.62496,-18.425 -2.66896,-6.34 -8.57496,-12.875 -16.12496,-11.875 -5.63,1.39 -9.63,7.105 -9.7,12.825 -0.48,4.86 0.73496,9.92 -0.62496,14.65 -3.95104,7.57 -13.4,8.09 -20.9,8.85 -2.25104,-4.36 -3.44504,-9.14 -4.87504,-13.8 4.17,-2.16 8.8452,-3.305 12.72496,-6.025 5.08104,-3.59 9.74504,-8.19 11.92504,-14.15 1.71,-4.01 1.38,-8.99 4.7,-12.2 2.87,-2.8 5.5548,-6.455 9.72504,-7.275 2.71144,-0.60813 5.55024,-0.99098 8.37496,-1.025 z m -369.325,5.625 c 0.08,3.24 -0.56,6.44 -1.6,9.5 0.04,-3.2 -1.19,-7.09 1.6,-9.5 z m 21.275,1.575 c 1.37,0.09 2.76,0.2 4.15,0.3 2.16,8.7 3.525,17.585 4.725,26.475 -3.95,2.13 -8.325,3.235 -12.725,3.875 -0.02,-3.65 0.205,-7.29 0.775,-10.9 1.06,-6.58 1.365,-13.28 3.075,-19.75 z m 11.65,0.05 c 0.68,0.02 2.06,0.04 2.75,0.05 3.62,6.92 8.215,13.705 9.225,21.625 -2.66,1.65 -5.695,2.465 -8.775,2.875 -1.38,-8.14 -1.64,-16.43 -3.2,-24.55 z m -49.475,4.775 c -0.91,12.35 -1.31,24.72 -0.8,37.1 -6.92,0.83 -13.785,-0.685 -20.625,-1.575 0.09,-3.37 0.3,-6.8 1.3,-10.05 1.82,-6.13 2.89,-12.53 5.65,-18.35 0.61,-1.72 2.425,-2.36 3.925,-3.1 3.46,-1.49 6.98,-2.815 10.55,-4.025 z m 301.80004,9.275 c -2.358,0.0474 -3.72504,3.1925 -5.47504,4.575 -8.29,8.1 -15.33,17.325 -22.85,26.125 -2.86,3.47 -6.59,6.095 -9.45,9.575 -5.8,6.84 -12.91,12.41 -18.6,19.35 -3.53,4.27 -7.62,8.03 -11.25,12.2 -0.58,2.58 0.67,5.05 1.9,7.25 2.4,4.19 3.28496,9.01 4.62504,13.6 1.43984,6.14 4.50024,11.775 5.74992,17.975 4.99208,18.4 8.22032,37.465 16.3,54.875 8.83192,-2.95 17.54504,-6.255 26.47504,-8.925 2.34,-0.71 4.67504,0.385 6.97504,0.825 3.36808,-3.61 7.27496,-7.105 12.22496,-8.275 1.78,0.54 3.42512,1.455 5.12496,2.225 -0.008,-1.55 -0.0408,-3.085 -0.0496,-4.625 14.43984,-5.34 28.40008,-11.955 41.84992,-19.425 -0.30784,-2.4 0.0752,-5.16 -1.57496,-7.15 -2.32,-2.91 -3.78512,-6.345 -4.87496,-9.875 -1.65208,-5.21 -4.25008,-10.045 -5.95008,-15.225 -2.34784,-8.81 -6.22496,-17.095 -9.12496,-25.725 -4.53,-10.97 -7.38,-22.625 -13,-33.125 -3.65,-6.82 -5.4,-14.43 -8.7,-21.4 -2.37,-5.24 -4.19,-11.305 -9.25,-14.625 -0.38128,-0.13375 -0.73856,-0.20678 -1.07496,-0.2 z m -177.20004,1.15 c 4.57,4.65 8.675,9.82 12.125,15.35 -7.18,2.46 -14.865,3.045 -22.025,5.525 l -0.525,0.65 c 0.06,5.47 0.91,11.035 3.4,15.975 9.82,-3.22 19.98,-5.97 30.35,-6.3 -0.11,3.63 -2.805,6.245 -4.825,8.975 -4.44,5.57 -7.865,12.035 -13.225,16.825 -4.23,3.2 -9.1,5.435 -13.95,7.525 -0.31,-6.85 0.51,-13.76 -0.65,-20.55 -1.11,-6.87 -2.55,-13.695 -4.8,-20.275 -1.43,-4.81 -3.345,-9.505 -3.875,-14.525 6.1,-2.85 12.08,-5.955 18,-9.175 z m 68.425,0.7 c -0.8524,0.0563 -1.63936,0.45687 -2.12496,1.275 -2.85008,3.78 -6.10504,7.18 -9.47504,10.5 -7.07,10.13 -14.94,19.665 -22.3,29.575 -3.87,6.27 -8.365,12.33 -10.575,19.45 1.97,0.8 4.67,1.03 5.45,3.4 3.7,8.49 5.285,17.725 8.825,26.275 2.48,5.3 4.045,10.99 6.775,16.15 1.68,2.25 5.165,6.005 7.875,3.225 2.99,-2.75 5.19,-6.22 7.6,-9.45 1.96,-2.73 4.98,-4.335 7.4,-6.575 6.82,-6.89 14.79,-12.465 21.55,-19.425 2.2,-2.75 7.9548,-3.89 6.77504,-8.25 -2.06016,-7.49 -4.67504,-14.845 -7.87504,-21.925 -1.86,-4.07 -1.92,-8.645 -3.4,-12.825 -2.46,-6.47 -5.86,-12.515 -8.65,-18.825 -1.64,-3.77 -1.32,-8.595 -4.8,-11.375 -0.75936,-0.78187 -1.95408,-1.27242 -3.05,-1.2 z m -225.675,1.925 c -1.25,6.58 -3.255,12.985 -4.875,19.475 -2.58,-0.35 -6.185,0 -7.575,-2.7 1.61,-7 6.12,-13.285 12.45,-16.775 z M 911.435,451 c 1.90176,4.62 3.71504,9.255 5.62504,13.875 -4.43,5 -5.54,11.84 -6.35,18.25 -0.1,4.41 0.99,10.405 6,11.675 3.63,1.88 7.56,0.37 11.2,-0.6 3.66,7.68 5.2,16.11 8.6,23.9 3.68,9.35 6.25,19.08 9.45,28.6 1.57,4.91 4.59,9.715 4.2,15.025 -4.95,4.84 -11.67,7.125 -17.7,10.275 -4.08,2.55 -8.33496,4.845 -12.92504,6.325 -6.32968,-10.09 -12.40024,-20.355 -19.14992,-30.175 -10.99168,-17.49 -24.01504,-33.595 -34.87504,-51.175 8.18,-7.49 14.46,-16.895 23.2,-23.775 9.21,-5.55 15.3152,-14.64 22.72496,-22.2 z m -203.29996,1.1 c 1.52,3.8 2.88,7.685 3.4,11.775 -5.66,1.28 -11.23,3.045 -16.95,4.025 -2.82,-1.95 -3.125,-5.77 -4.075,-8.8 5.68,-2.78 11.515,-5.3 17.625,-7 z m 93.39996,12.55 c 4.68,5.8 8.68504,12.215 10.67504,19.475 -3.05,-2.57 -5.65,-5.575 -8.25,-8.575 -2.91,-3.41 -6.33,-6.52 -8.15,-10.7 1.89,-0.1 3.81504,-0.15 5.72496,-0.2 z m -346.14996,2.55 c 2.24731,-0.0658 4.51562,0.0813 6.75,0.425 3.1,0.44 5.765,3.265 5.875,6.425 -0.44,4.46 -4.45,7.565 -8.45,8.875 -6.56,2.01 -13.54,1.97 -20.1,4 -6.62,1.95 -13.845,2.365 -19.775,6.225 -6.32,3.86 -14.445,7.63 -16.225,15.55 6.34,2.85 12.89,-0.49 18.6,-3.2 11.25,-5.66 24.11,-5.83 36.4,-6.7 0.64,1.14 1.3,2.3 1.95,3.45 -7.04,3.7 -15.14,4.3 -22.95,4.55 -8.69,0.87 -17.74,2.35 -25.2,7.2 11.52,5.16 24.45,2.745 36.55,4.825 1.14,1.09 1.705,2.645 1.975,4.175 -0.27,2.51 -3.22,3.035 -5.25,3.375 -6.25,1.16 -11.83,-2.64 -17.9,-3.3 -8.59,-1.23 -18.34,-3.245 -26,2.125 -0.39,2.24 2.345,2.49 3.925,2.9 2.71,0.7 6.27,0.195 8.05,2.825 4.81,6.4 6.1,14.625 7.35,22.325 0.62,5.94 2.5,11.73 2.3,17.75 -0.25,8.95 0.43,17.98 -1.1,26.85 -1.04,7.34 -2.445,14.695 -5.175,21.625 -2.31,5.65 -6.38,10.305 -9.3,15.625 -4.86,9.66 -12.22,17.71 -19.15,25.9 -6.65,7.83 -16.46,11.815 -24.05,18.525 9.24,8.22 21.95,11.19 34,11.95 12.6,-0.11 25.415,-1.53 37.125,-6.45 2.97,-1.37 7.13,-2.22 8.1,-5.8 2.86,-8.84 7.55,-17.28 14.4,-23.65 3.87,-3.8 7.595,-9.54 13.775,-8.95 -2.13,6.09 -8.7,8.07 -13.75,11 -2.75,3.09 -4.39,7.035 -6.5,10.575 -2.83,4.07 2.51,9.035 6.65,7.875 11.37,-2.36 20.625,-10.11 31.575,-13.65 0,1.82 0,3.635 -0.05,5.475 -4.72,1.95 -9.475,3.92 -14.525,4.85 -5.24,1.26 -11.22,1.78 -15.15,5.9 -1.52,1.38 -1.93,4.31 0.15,5.4 5.09,2.09 10.695,0.8 15.975,0.35 6.91,-0.53 13.655,-2.545 20.575,-2.725 -1.25,4.23 -5.955,5.575 -9.575,7.125 -8.8,2.11 -17.835,-0.165 -26.725,-0.325 -4.2,0.07 -7.735,-2.86 -11.825,-3.15 -3.25,1.56 -5.83,4.285 -9.25,5.575 -5.63,2.22 -11.625,3.29 -17.475,4.75 -9.39,1.78 -18.91,3.415 -28.5,2.925 -7.37,0.18 -14.835,0.625 -22.025,-1.375 -11.8,-1.91 -23.41,-4.76 -34.85,-8.2 -9.72,-3.23 -19.795,-5.61 -29.025,-10.15 -3.22,-1.79 -7.09,-4.035 -7.55,-8.075 -0.75,-5.58 -2.655,-11.47 -7.475,-14.85 -2.84,-2.23 -6.67,-1.985 -9.95,-1.075 0.68,2.18 1.195,4.405 2.075,6.525 1.23,2.16 3.33,3.72 4.4,6 0.9,1.98 1.045,4.185 1.325,6.325 -3.57,2.3 -7.26,4.45 -10.4,7.35 2.57,7.18 8.81,12.61 10,20.35 1.03,4.62 -2.22,8.82 -5.85,11.25 -3.05,-0.23 -5.26,-3.605 -8.5,-2.875 1.36,4.29 3.06,8.6 2.6,13.2 -0.41,5.39 0.37,11.095 -1.65,16.225 -2.71,4.69 -9.2,4.27 -13.35,1.9 -3.79,-1.96 -4.77,-6.455 -6.4,-10.025 -3.71,0.49 -5.88,4.41 -5.8,7.9 -0.05,12.36 -3.19,24.425 -6.4,36.275 -1.37,7.16 -3.655,14.075 -5.975,20.975 -2.32,6.89004 -6.2,13.085 -9.4,19.575 -3.04,6.12 -6.265,12.16 -10.075,17.85 -2.51,3.73 -4.59,8.28 -8.9,10.25 -3.94,2.01 -8.475,1.86 -12.775,1.95 -0.35,-7.45 4.595,-13.71 4.925,-21.05 -4.69,1.37 -8.34,5.26512 -10.35,9.62496 -3.69,7.53192 -8.02,15.16504 -14.9,20.22504 -7.54,5.33 -15.64,10.28 -24.75,12.3 -6.23,1.51 -12.24,-1.61 -17.7,-4.2 -5.02,-2.24 -7.385,-7.8 -8.425,-12.85 0.32,-3.35 3.59,-5.21488 6,-7.07504 4.87,-3.04344 8.615,-7.51032 13.625,-10.34992 0.1,-0.31016 0.3,-0.91504 0.4,-1.22504 -1.9,-1.82 -4.225,-3.10488 -6.525,-4.32504 -3.37,3.75656 -7.06,7.21992 -10.85,10.55008 -4.29,3.71808 -7.435,8.84016 -12.775,11.24992 -7.1,3.45656 -14.76,6.19504 -22.649999,6.97504 -6.8,0.89 -13.07,-2.57 -18.5,-6.25 -4.77,-3.53 -9.36,-7.58 -12.25,-12.85 -2.25,-3.89 -2.65,-8.69 -1.6,-13 3.59,-3.89 8.52,-6.19 13.05,-8.8 7.91,-3.66 11.84,-12.89 20.45,-15.4 6.929999,-1.73 14.084999,-2.415 21.174999,-3.025 -5.64,-4.66 -13.185,-6.775 -20.424999,-7.025 -3.6,-0.14 -7.13,-1.12 -10.75,-1.1 -2.43,-0.2 -2.76,2.785 -3.5,4.475 -1,2.18 -0.85,4.57 -0.3,6.85 -8,5.31996 -15.06,12.145 -23.95,16.025 -2.43,1.1 -5.275,-0.26504 -7.625,1.12496 -5.47,3 -11.835,1.07528 -17.575,0.0248 -4.4,-1.05 -9.66,-1.53 -12.4,-5.65 -2.67,-3.93 -5.94,-7.68 -7.5,-12.2 0.67,-5.61 4.405,-10.37 8.075,-14.45 7.6,-8.57 18.105,-13.52 27.825,-19.2 3.64,-1.94 5.58,-5.75 8.6,-8.4 3.47,-3.18952 7.59,-5.96976 9.75,-10.29976 1.04,-2.05 1.08,-4.8 -0.55,-6.55 -4.57,-5.12 -9.23,-10.18 -13.7,-15.4 -2.38,-3.01 -5.29,-7.175 -2.9,-11.025 5.2,-9.58 15.21,-16.76 26.2,-17.65 10.11,-0.72 20.235,-1.345 30.374999,-1.625 3.77,-0.09 7.43,-1.03 11,-2.15 9.41,-2.65 18.94,-5.59 27.25,-10.85 7.73,-5.81 16.835,-9.56 24.225,-15.85 8.84,-6.49 15.16,-15.63 21.6,-24.35 8.91,-10.66 16.95,-22.46 28.55,-30.45 3.45,-2.19 7.16,-4.54 11.35,-4.8 3.82,0.06 6.59,3.05 9.9,4.5 1.37,-0.15 2.715,-0.49 4.075,-0.75 -4.06,-2.97 -8.48,-5.445 -13.1,-7.425 -3.23,-1.5 -6.855,-0.7 -10.275,-0.9 -3.31,-0.38 -5.95,2.075 -8.4,3.925 -7.89,6.79 -14.14,15.2 -21.45,22.55 -5.35,-2.21 -10.05,-5.585 -15.05,-8.425 -8.67,-5.02 -15.555,-12.48 -22.025,-20 -3.6,-5.01 -8.25,-9.49 -10.15,-15.5 3.83,0.44 9.125,-0.78 11.475,3.15 7.73,10.43 16.96,19.98 28.05,26.85 5.98,-3.38 10.68,-8.485 15.3,-13.475 6.51,-6.82 9.695,-16.155 10.725,-25.375 0.19,-2.44 1.025,-4.73 2.275,-6.8 3.28,1.06 6.58,3.195 10.15,2.175 3.98,-1.01 8.395,-2.505 10.625,-6.225 1.52,-2.18 2.185,-4.82 2.225,-7.45 -3.06,1.94 -4.31,5.815 -7.7,7.325 -1.87,0.84 -3.96,3.04 -6.05,1.5 -4.4,-2.01 -2.87,-7.52 -4,-11.3 -0.4,-0.16 -1.215,-0.49 -1.625,-0.65 -2.13,2.87 -2.71,6.6 -5,9.4 -7.33,9.31 -19.115,14.83 -30.925,14.85 -5.36,0 -10.74,-0.1 -16.1,-0.2 -9.06,-0.15 -17.895,-2.95 -26.975,-2.7 -6.49,0.21 -12.55,-2.395 -18.65,-4.225 -8.94,-3.03 -18.514999,-5.11 -26.224999,-10.85 -5.14,-3.83 -10.86,-6.935 -15.25,-11.675 -4.82,-5.24 -11.005,-8.945 -15.675,-14.325 -8.42,-8.92 -16.57,-18.1 -24.8,-27.2 -3.01,-3.27 -7.57,-7.39 -9.75,-11.25 2.27,-1.25 6.74,-2.165 9.35,-2.525 8.45,-1.34 16.74,-3.725 25.3,-4.325 12.93,-0.81 25.83,-2.115 38.8,-2.025 3.179999,0.12 15.794999,-0.67 18.974999,-0.45 9.87,0.39 9.64,-0.115 19.35,1.675 3.72,0.74 7.485,1.825 10.475,4.275 2.99,2.69 7.18,2.79 10.9,3.7 -0.8,-1.62 -1.635,-3.24 -2.425,-4.85 4.14,-2.23 9.065,-2.15 13.075,0.35 -2.99,2.51 -6.84,3.85 -9.55,6.7 -3.35,3.72 -5.295,9.04 -3.875,14 0.52,0.25 1.555,0.75 2.075,1 0.98,-3.77 1.14,-8.005 3.65,-11.175 1.69,-2.21 4.28,-3.415 6.7,-4.625 0.9,2.82 -0.03,5.63 -0.95,8.3 -1.1,3.03 -0.995,6.275 -1.425,9.425 -2.57,2.08 -6.18,2.39 -8.85,4.4 -5.73,4.34 -11.41,9.515 -13.35,16.725 -1.76,3.85 -0.62,8.015 0.05,11.975 -3.15,-3.08 -6.72,-5.83 -9.2,-9.5 -0.82,-3.21 -0.075,-6.555 -0.075,-9.825 -4.63,2.3 -4.875,8.88 -1.775,12.55 6.26,7.98 15.155,13.485 21.225,21.625 -9.15,0.4 -17.9,-3.48 -25.3,-8.55 -3.46,-2.23 -2.79,-6.975 -4.55,-10.275 -2.57,2.23 -1.285,5.61 -0.375,8.3 1.79,5.16 6.465,8.555 11.225,10.775 7.15,3.28 15.12,4.655 22.95,4.425 6.17,-0.52 11.835,2.74 17.975,2.7 8.16,-0.44 15.94,-3.33 23.2,-6.9 7.39,-3.79 13.185,-11.69 12.625,-20.25 0.67,-5.42 -3,-9.75 -5.85,-13.9 3.14,-1.48 6.66,-2.465 9.25,-4.875 3.38,-3.72 4.265,-9.155 3.275,-13.975 -0.77,-4.32 -2.99,-8.74 -1.5,-13.15 2.08,-7.28 6.345,-14.535 13.375,-17.925 2.25,-1.48 4.615,0.29 6.725,1.1 -2.76,11.92 -13.685,20.31 -15.225,32.7 -1.46,4.7 2.215,10.08 7.075,10.5 2.71,-1.29 3.21,-4.695 4.25,-7.225 2.44,-7.55 6.245,-15.93 13.825,-19.45 -0.8,11.45 -10.36,19.45 -14.45,29.65 -0.85,1.64 0.755,3.02 1.325,4.45 6.91,-1.92 9.47,-10.06 16.3,-12.15 1.37,7.2 -5.76,11.25 -10.45,15.15 4.12,1.99 8.535,3.82 13.225,3.3 7.53,-0.79 15.385,0.07 22.575,-2.75 13.45,-4.86 26.07,-11.685 38.7,-18.325 6.22,-3.43 13.05,-5.375 19.5,-8.275 6.19,-2.87 12.91,-4.365 19.3,-6.675 8.42,-2.36 17.125,-4.36 25.925,-3.7 6.77,0.45 14.575,-0.95 19.825,4.45 5.3,-6.36 9.97,-13.58 17.2,-17.95 7.82,-5.67 16.53,-9.975 25.45,-13.625 4.57187,-1.90438 9.48091,-3.00538 14.425,-3.15 z m 222.575,0.025 c 0.75,1.68 1.515,3.36 2.275,5.05 -5.04,2.48 -10.415,4.11 -15.925,5.1 -1.25,1.56 -1.12,3.71 -1.35,5.6 -0.3,5.87 -2.485,11.42 -3.375,17.2 9.02,-3.04 17.27,-8.185 26.7,-10.075 1.91,4.09 3.3,8.4 4.5,12.75 1.35,5.11 3.98,9.795 4.95,15.025 -4.35,1.95 -8.515,4.27 -12.575,6.75 -9.79,4.67 -20.53,6.555 -30.8,9.825 -1.16,0.71 -2.85,-0.235 -2.5,-1.625 1.03,-8.88 6.26,-16.755 6.6,-25.775 0.41,-10.7 2.58,-21.2 3.5,-31.85 -0.16,-2.29 2.42,-2.95 4.1,-3.65 4.59,-1.56 9.23,-2.975 13.9,-4.325 z m 240.12504,2.575 c 2.8688,4.1 4.19496,8.97 6.07496,13.55 1.07,2.59 1.7952,5.305 2.27496,8.075 -5.33984,-2 -7.26496,-7.76 -9.02496,-12.65 -1.07,-2.97 -0.0552,-6.075 0.67504,-8.975 z m -262.85004,5.2 c -0.42,1.77 0.645,4.42 -1.325,5.45 -3.83,1.97 -8.165,2.635 -12.175,4.125 -0.02,-1.48 -0.04,-2.955 -0.05,-4.425 4.43,-1.92 8.89,-3.84 13.55,-5.15 z m -96.75,1.65 c -1.85,0.23 -3.49,1.26 -5.2,1.95 -1.48,8.21 -3.88,16.205 -5.55,24.375 -1.56,9.16 -3.485,18.27 -4.575,27.5 -1.63,7.6 -1.185,15.38 -1.475,23.1 4.18,-2.78 8.94,-0.13 13.3,0.65 8.41,1.72 16.985,2.355 25.525,3.075 12,0.67 23.16,-4.825 35,-5.725 3.25,-0.23 5.9,-2.305 8.6,-3.925 0,-14.89 -0.055,-29.755 -0.025,-44.625 0.18,-7.47 1.765,-15.36 -1.075,-22.5 -7.26,-1.78 -14.82,-1.125 -22.2,-0.825 -11.08,1.38 -22.325,1.2 -33.375,-0.3 -3.16,-0.32 -5.93,-1.93 -8.95,-2.75 z m 276.975,0.225 c 2.08,1.57 4.34,3.135 5.65,5.475 0.74,2.33 -1.65,3.445 -3.4,4.125 -1.07,-3.12 -1.91,-6.32 -2.25,-9.6 z m -47.62504,2.975 c 3.9,4.36 9.10008,7.61 11.95008,12.85 2.50976,4.65 4.98,9.45 8.74992,13.25 1.94016,1.93 3.13984,4.405 4.15008,6.925 -1.32024,0.91 -2.64504,1.825 -3.97504,2.725 -2.64,-3.71 -5.16,-7.52 -7.1,-11.65 -3.79,-8.48 -9.66504,-15.79 -13.77504,-24.1 z m -11.12496,0.075 c 4.31,5.12 7.44,11.09 11.35,16.5 4.53,6.27 7.92,13.265 12.55,19.475 1.09,1.52 2.22,3.075 2.7,4.925 -1.51,2.52 -3.90496,4.305 -6.07504,6.225 -3.18,-4.82 -5.36496,-10.215 -8.62496,-14.975 -3.12,-4.57 -4.445,-10.055 -7.625,-14.575 -2.52,-3.74 -6.315,-7 -7.075,-11.65 -0.61,-2.45 1.51,-4.155 2.8,-5.925 z m -63.9,1.525 c 0.67,3.5 1.005,7.055 1.125,10.625 0.15,5.73 1.985,11.655 -0.225,17.225 -0.93,0.74 -1.99,1.265 -3,1.875 -3.29,-8.94 -7.145,-17.705 -9.275,-27.025 3.73,-1.14 7.535,-2 11.375,-2.7 z m -153.3,0.625 c 2.18,0.57 4.33,1.195 6.5,1.825 0.13,4.98 -0.145,9.99 -1.725,14.75 -1.85,5.35 -0.65,11.15 -2.25,16.55 -0.75,5.22 -7.025,6.03 -10.925,8.15 0.03,-6.33 1.88,-12.4 2.9,-18.6 1.66,-7.57 1.49,-15.815 5.5,-22.675 z m 22.525,4.275 c 8.73,-0.01 17.505,0.365 26.075,2.125 -0.16,2.87 0.955,6.165 -0.325,8.775 -10.57,3.01 -20.025,8.77 -30.125,12.9 0.29,-8.11 2.755,-15.91 4.375,-23.8 z m 186.825,4.85008 c 0.12702,0.003 0.25375,0.0206 0.4,0.05 3.53,4.42 5.47,9.795 8.25,14.675 3.84,7.13 7.38,14.47 11.85,21.25 1.06,1.92 3.11,4.65 0.95,6.6 -1.81,2.49 -4.66504,3.81 -7.675,4.1 -3.37,-7.97 -6.975,-15.845 -9.925,-23.975 -2.14,-6.13 -7.975,-11.615 -6.225,-18.575 0.61875,-1.37813 0.46975,-4.1685 2.375,-4.125 z m -580.9,2.3 c 3.44727,-0.0927 7.02125,0.81062 10.25,1.75 5.49,1.61 9.34,6.33 11.85,11.25 1.47,3.05 2.72,6.84 0.95,10.05 -2.25,4.05 -6.35,6.595 -10.35,8.675 -7.02,-4.46 -15.135,-6.485 -22.675,-9.775 -1.83,-2.54 -3.685,-5.925 -2.275,-9.075 1.3,-3.56 2.265,-7.425 4.675,-10.425 2.27938,-1.6975 4.89379,-2.3779 7.575,-2.45 z m 463.2,8.75 c -0.04,4.68 -1.33,9.2 -2.8,13.6 -1.98,5.93 -3.045,12.43 -7.125,17.4 -1.17,-9.09 -1.375,-18.25 -1.175,-27.4 3.52,-1.66 7.25,-2.95 11.1,-3.6 z m 207.25,0.475 c 10.05,11.63 18.4048,24.54 27.07504,37.2 6.76832,10.88 14.38496,21.205 21.02496,32.175 2.01,3.42 4.66488,6.515 5.97504,10.325 -2.97032,1.25 -6.00504,2.37 -9.07504,3.35 -3.56,-5.4 -6.53,-11.15 -10.3,-16.4 -3.54,-5.71 -7.86,-10.89 -11.25,-16.7 -4.37,-7.2 -9.46504,-13.945 -13.87496,-21.125 -4.3916,-7.09 -10.40504,-12.9 -15.82504,-19.15 -1.5,-4.29 3.23,-7.485 6.25,-9.675 z m -659.875,3.025 c -1.62875,0.03 -3.295,0.76 -4.325,2 -0.37,1.63 -0.39,3.305 -0.5,4.975 2.35,0.64 4.835,1.46 7.275,0.75 1.53,-1.28 3.045,-3.665 1.675,-5.575 -0.895,-1.52 -2.49625,-2.18 -4.125,-2.15 z m 410.725,10.2 c 1.38,9.39 2.115,18.95 4.825,28.1 -7.26,2.05 -14.595,3.735 -21.975,5.275 -5.39,0.82 -10.87,0.325 -16.3,0.275 -1.02,-6.34 0.11,-12.85 1.15,-19.1 3.87,-2.85 8.575,-4.185 12.975,-5.975 6.68,-2.3 13.015,-5.435 19.325,-8.575 z m -440.525,3.1 c 4.06859,-0.19418 8.1025,1.24375 11.775,2.95 4.86,2.26 10.065,3.77 14.825,6.25 4.66,3.28 8.135,8.035 10.875,12.975 1.8,3.02 1.06,6.825 -0.8,9.625 -3.63,5.72 -8.985,11.08 -15.925,12.25 -5.27,0.99 -10.77,2.41 -16.1,1 -8.45,-1.8 -15.27,-7.935 -20.3,-14.675 -3.39,-4.05 -2.23,-9.61 -2.3,-14.45 0.46,-8.06 7.705,-13.83 15.125,-15.5 0.9375,-0.2325 1.8861,-0.38019 2.825,-0.425 z m 574.9,1.475 c 6.73,13.35 11.11,27.69 17,41.4 1.69,3.75 3.26,7.575 4.75,11.425 -7.91,4.32 -16.915,5.73 -25.175,9.15 -2.98,-4.99 -4.15,-10.745 -6.2,-16.125 -1.57,-4.39 -3.44,-8.735 -4.1,-13.375 -0.56,-6.1 0.575,-12.245 -0.375,-18.325 -0.21,-2.1 -0.75,-4.305 -0.1,-6.375 4.56,-2.9 9.46,-5.195 14.2,-7.775 z m 106.825,0.275 c 4.02,3.6 6.16504,8.645 9.37496,12.875 4.01016,5.38 7.78504,10.945 11.27504,16.675 2.8,4.59 6.22,8.85 8.1,13.95 -4.82,0.23 -9.59504,-0.54 -14.27504,-1.6 -2.9084,-6.73 -4.97496,-13.77 -7.52496,-20.65 -2.13,-7.15 -5.13,-14.01 -6.95,-21.25 z m -20.32504,1.325 c -2.30904,4.74 -6.73984,7.715 -11,10.525 -6.4,5.22 -12.85496,10.39 -18.72496,16.2 -7.09,5.51 -13.65,11.63 -19.75,18.2 2.17,5.96 6.03,11.2 7.55,17.4 2.52,8.53 4.84504,17.16 8.72496,25.2 2.75008,5.56 4.44504,11.55 6.87504,17.25 7.58,-1.23 15.37504,-2.12 22.47504,-5.25 8.20912,-3.21 16.61496,-5.92 24.87496,-9 4.6,-1.73 8.37496,-4.96 12.07496,-8.1 -1.18984,-6.64 -4.5,-12.57 -6.5,-18.95 -3.89904,-9.84 -7.11496,-19.945 -11.02496,-29.775 -2.75,-6.78 -3.6,-14.27 -7.4,-20.6 -1.86,-2.96 -2.2048,-6.485 -3.27504,-9.725 -0.92968,-1.94 -3.02976,-2.685 -4.9,-3.375 z m -105.47496,8.1 c 1.71,7.54 0.38,15.22 0.4,22.85 -1.23,12.63 -2.85,25.22 -4.15,37.85 -0.3,11.41 -3.22,22.475 -5.8,33.525 -3.74,15.15 -10.07,29.485 -16.1,43.825 -2.3,5.45 -4.12,11.885 -9.5,15.125 -3.17,0.26 -6.345,-0.275 -9.475,-0.625 -6.21,-0.79 -12.52,-0.855 -18.6,-2.425 -2.45,-9.55 -6.36,-18.625 -9.6,-27.925 9.26,-7.93 20.32,-13.275 30.85,-19.275 7.01,-3.72 13.62,-8.33 21.15,-11 3.02,-1.3 6.825,-2.15 8.375,-5.4 2.05,-4.01 2.85,-8.525 4.1,-12.825 0.86,-2.76 -0.14,-5.59 -0.45,-8.35 -1.8,0.42 -3.6,0.81 -5.3,1.5 -9.93,4.37 -19.375,9.71 -28.775,15.1 -5.99,2.78 -10.98,7.275 -16.95,10.075 -6.18,2.62 -10.975,7.505 -17.025,10.375 -3.76,-12.95 -5.32,-26.365 -8.55,-39.425 -1.79,-7.35 -3.885,-14.68 -4.475,-22.25 -3.82,3.43 -6.235,8.01 -9.325,12.05 -0.84,1.19 -1.81,2.44 -1.7,4 -0.09,5.08 1.38,10.015 2,15.025 0.69,5.43 1.525,10.83 2.825,16.15 1.44,5.82 1.335,11.93 3.225,17.65 0.57,2.47 1.92,5.055 1.15,7.625 -3.85,3.59 -8.595,6.055 -12.975,8.925 -6.85,3.72 -12.725,8.95 -19.625,12.6 -1.75,-8 -1.94,-16.235 -3.75,-24.225 -1.05,-6.47 -3.18,-13.045 -2.3,-19.625 2.94,-5.2 8.19,-8.57 11.75,-13.25 1.89,-6.76 7.01,-11.8 10.9,-17.45 5.88,-7.66 10.52,-16.165 15.65,-24.325 2.16,-3.89 6.69,-5.1 10.65,-6.3 5.73,-1.63 11.41,-3.405 17.2,-4.825 3.75,-1 7.15,-2.99 10.85,-4.15 11.37,-3.52 21.81,-9.395 33.15,-13.025 2.82,6.71 3.66,14.05 6.55,20.75 2.12,5.44 5,10.58 6.55,16.25 0.79,-0.42 1.58,-0.825 2.4,-1.225 0.05,-4.75 0.015,-9.555 0.975,-14.225 1.16,-5.12 0.025,-10.365 -0.025,-15.525 0,-4 -0.09,-7.99 -0.6,-11.95 1.44,-0.57 2.89,-1.12 4.35,-1.65 z m -536.45,3.95 c -0.4589,-0.0109 -0.9425,0.0487 -1.45,0.2 -3.31,0.13 -4.23,3.72 -4.55,6.4 3.01,1.38 5.985,2.985 9.275,3.575 1.45,-0.37 2.615,-1.89 2.325,-3.4 -0.4025,-2.975 -2.38766,-6.69885 -5.6,-6.775 z m 639.47504,0.25 c 3.84944,3.44 7.04496,7.67 8.72496,12.6 1.96,5.67 4.72,11.07 6.05,16.95 -1.45,-0.17 -3.04528,0.195 -4.37496,-0.475 -3.03056,-3.6 -4.60504,-8.115 -6.97504,-12.125 -2.21,-4.27 -5.21,-8.085 -7.25,-12.425 0.68,-1.9 2.5148,-3.075 3.82504,-4.525 z M 410.93504,537.6 c -0.78375,0.0525 -1.65,0.31 -2.325,0.3 0.49,4.61 1.875,9.095 3.875,13.275 1.31,-0.83 2.62,-1.665 3.95,-2.475 -0.33,-3.62 -1.525,-7.17 -3.625,-10.15 -0.39,-0.85 -1.09125,-1.0025 -1.875,-0.95 z m 150.325,1.475 c -0.32,2.97 -0.89,5.9 -1.35,8.85 -2.86,-0.37 -5.69,-0.88 -8.5,-1.5 2.81,-3.02 6.23,-5.38 9.85,-7.35 z M 817.635,543.6 c 0.16152,-0.013 0.33576,-0.0106 0.5,0 0.37696,0.0243 0.7548,0.135 1.15008,0.3 3.64928,3 5.53496,7.55 7.67496,11.65 6.72,17.12 18.44,31.64 25.4,48.65 -2.97,1.72 -6.18,2.93 -9.5,3.75 -10.94,-17.58 -19.85,-36.28 -30.35,-54.1 -0.78,-1.71 -2.56,-3.92 -0.8,-5.6 1.52576,-1.71446 3.5112,-4.4551 5.92496,-4.65 z m -12.07496,10.75 c 2.88,3.58 5.3952,7.49 7.17496,11.75 -7.44944,0.43 -14.83496,2.17 -22.32496,1.45 4.78,-4.7 9.75,-9.22 15.15,-13.2 z m -187.75,12.8 c 0.73,3.98 2.9,8.725 0.25,12.425 -7.98,11.33 -15.705,22.895 -24.875,33.325 -2.55,-7.71 -2.235,-15.915 -2.475,-23.925 0.14,-4.15 -0.52,-8.375 0.3,-12.475 3.5,-4.29 9.54,-3.16 14.25,-4.95 4.14,-1.57 8.13,-3.63 12.55,-4.4 z m -62.05,6.65 c 2.7831,0.008 5.3625,0.825 5.9,4.025 -3.66,0.56 -7.345,0.82 -11.025,1.05 0.09,-1.53 0.2,-3.04 0.3,-4.55 1.41375,-0.2475 3.15514,-0.52957 4.825,-0.525 z m 317.85,4.55 c 5.09,0.99 10.38496,0.715 15.37504,2.175 2.48984,2.2 3.62496,5.53 5.17496,8.4 -3.38,1.63 -6.89,3.045 -10.6,3.725 -3.21,-4.84 -6.25,-9.81 -9.95,-14.3 z m 92.27504,2.75 c -3.74376,-0.0503 -7.47376,0.77 -10.82504,2.45 -12.49,6.37 -26.01,10.32 -38.7,16.25 -4.75,2.06 -9.87,3.235 -14.45,5.675 -6.58,3.58 -13.92,5.355 -20.85,8.075 -1.7,0.75 -3.65528,1.56 -4.47496,3.35 0.26808,8.23 5.01496,15.285 7.07496,23.075 3.68,9.16 5.19,19.125 10.1,27.775 5.99,-2.5 12.51,-3.19 18.8,-4.6 9.36,-1.55 18.66,-3.595 27.7,-6.475 16.97,-7.07 35.94,-10.01 51.05,-21.05 -0.44,-4.51 -2.31,-8.65 -3.55,-12.95 -2.81,-8.42 -4.77,-17.215 -8.95,-25.125 -2.32,-4.29 -4.80496,-8.47 -7.12496,-12.75 -1.05216,-1.51 -1.97504,-3.845 -4.17504,-3.625 -0.53376,-0.0425 -1.09056,-0.0678 -1.62496,-0.075 z m -523.57504,1 c 10.62506,-0.13942 21.22875,1.48875 31.775,2.675 6.35,1.1 12.715,2.165 19.025,3.475 4.04,0.79 7.54,3.24 11.5,4.15 12.31,-2.06 24.4,-5.58 36.9,-6.3 5.43,-0.37 10.69,-1.87 16.05,-2.65 2.28,-0.48 4.07,1.015 5.2,2.825 -4.5,1.11 -9.04,2.235 -13.7,2.275 -5.26,0.06 -10.45,1.175 -15.65,1.825 -3.43,0.42 -6.92,1.675 -9.25,4.325 -1.29,1.69 -0.225,4.235 1.775,4.775 6,2.37 12.595,3.45 18.025,7.15 4.6,3.41 10.415,4.9 14.375,9.2 -0.24,0.74 -0.71,2.235 -0.95,2.975 -7.78,0.77 -14.15,-4.355 -20.1,-8.575 -3.86,-2.62 -8.035,-4.7 -12.325,-6.5 -2.6,-1.06 -5.58,-1.61 -8.3,-0.75 -1.75,0.61 -2.31,2.83 -1.4,4.35 5,8.9 13.615,15.24 18.275,24.35 -2.05,-0.28 -4.425,-0.05 -5.975,-1.7 -5.37,-4.65 -9.67,-10.335 -14.75,-15.275 -3.82,-3.62 -5.4,-9.15 -9.95,-12.05 -5.59,-3.69 -11.28,-7.62 -17.9,-9.2 -8.03,-1.9 -16.085,-4.905 -24.475,-3.725 -8.93,1.35 -17.985,2.375 -26.625,5.125 -0.05,-4.14 0.14,-8.31 1.1,-12.35 2.45438,-0.24938 4.89806,-0.36782 7.35,-0.4 z m 378.07504,0.75 c 3.42968,1.55 4.82,5.495 6.7,8.525 3,6.41 6.93496,12.385 9.42496,19.025 -9.49,1.89 -17.96488,7.89 -27.87504,7.55 -2.3492,-3.93 -4.30496,-8.065 -5.67496,-12.425 -2.01,-6.6 -5.94,-12.54 -6.9,-19.45 7.95,-1.97 16.1648,-2.875 24.32504,-3.225 z m 144.92496,5 c 5.93,8.28 7.6,18.57 11.75,27.7 1.68,3.58 2.42,7.485 3,11.375 -9.96,1.62 -17.98,8.23 -27.15,11.9 -2.9,-4.23 -4.52,-9.105 -6.5,-13.775 -4.47,-8.09 -8.51488,-16.42 -11.97504,-25 9.97032,-4.8 20.43504,-8.56 30.87504,-12.2 z m -191.475,3.2 c 2.76,9.03 6.735,17.68 9.075,26.85 1.72,7.22 5.45496,13.73 7.52496,20.85 1.5,5.41 4.29504,10.335 5.87504,15.725 1.81,6.14 4.95,11.76 6.95,17.85 -5.04,1.86 -10.47,1.855 -15.65,3.075 -4.03,0.8 -7.99,2.01 -12.1,2.35 -2.03,-2.2 -2.57,-5.295 -3.7,-7.975 -2.32,-6.94 -5.595,-13.505 -7.675,-20.525 -2.08,-6.98 -5.005,-13.65 -7.325,-20.55 -2.98,-9.07 -7.82,-17.6 -9.2,-27.15 3.27,-1.26 6.575,-2.44 9.875,-3.65 5.56,-2 10.57,-5.4 16.35,-6.85 z m -588.225,1.25 c 3.32361,0.0328 6.66062,0.87687 8.95,3.4 -3.12,4.37 -6.105,9.805 -11.175,11.975 -4.71,-1.59 -8.46,-5.165 -12.6,-7.825 1.69,-4.22 6.35,-6.005 10.4,-7.175 1.41875,-0.22813 2.91427,-0.38992 4.425,-0.375 z m 352.025,2.05 c 2.19003,-0.0758 4.39,0.17813 6.525,0.725 0.07,2.31 0.175,4.605 0.275,6.925 -5.14,-1.48 -10.165,-3.335 -14.975,-5.675 2.565,-1.2375 5.35925,-1.87755 8.175,-1.975 z m 22,0.15 c 0.46,5.03 0.38,10.09 0.6,15.15 -2.33,-1.21 -5.215,-1.765 -6.925,-3.825 -0.86,-3.64 -0.135,-7.405 0.125,-11.075 2.06,-0.11 4.12,-0.2 6.2,-0.25 z m 359.95004,11.45 c 1.46864,0.37 3.27024,0.36 4.24992,1.75 9.33128,10.31 15.92032,22.79 21.8,35.3 -1.87968,0.39 -4.48496,1.88 -5.52496,-0.6 -5.12,-8.6 -9.8652,-17.435 -14.82496,-26.125 -2.04144,-3.36 -4.09008,-6.745 -5.7,-10.325 z m -187.05004,3.775 c 3.82,9.74 6.52,19.9 11.1,29.35 4.31,8.26 6.44,17.39 9.65,26.1 1.99,6.1 4.85,12.03 5.1,18.55 -7.87,5.33 -17.43,7.65 -24.7,13.95 -1.47,-2.43 -2.465,-5.315 -4.825,-7.025 -8.35,-4.8 -18.2,-4.72 -27.45,-6.1 0.68,-5.13 5.24,-8.45 6.3,-13.45 4.14,-14.33 9.935,-28.105 14.675,-42.225 1.58,-4.45 2.185,-9.155 3.275,-13.725 0.69,-3.24 4.305,-4.135 6.875,-5.425 z m 178.85004,0.15 c 5.27968,6.55 8.39496,14.435 12.57496,21.675 2.9,5.67 6.19,11.145 8.55,17.075 -2.28,0.51 -4.56,0.985 -6.85,1.425 -4,-6.91 -9.93512,-12.28 -14.37496,-18.85 -4.08128,-5.49 -8.16016,-10.95 -12.4,-16.3 3.91872,-2.21 8.1,-4.005 12.5,-5.025 z M 531.61004,613 c 4.24,2.26 8.015,5.285 12.025,7.925 2.51,1.41 2.3,4.58 2.7,7.05 0.64,7.68 2.905,15.145 3.075,22.875 -3.46,-0.29 -6.86,-0.97 -10.25,-1.65 -0.7,-2.37 -1.325,-4.77 -1.925,-7.15 1.5,-1.87 4.02,-3.49 3.9,-6.15 -0.18,-4.42 -0.535,-9.38 -3.825,-12.7 -2.74,-2.88 -5.11,-6.18 -5.7,-10.2 z m 354.25,7.95 c 5.79,9 13.35,16.825 18.2,26.425 1.44,2.87 3.27,5.535 5.3,8.025 -4.2,2.38 -8.81,4.055 -13.65,4.475 -2.79,-10.33 -6.11,-20.495 -9.1,-30.775 -0.82,-2.63 -0.74,-5.43 -0.75,-8.15 z m -18.8,0.2 c -6.28,-0.13 -11.8452,3.1 -17.77496,4.65 -3.89088,1.1 -7.98032,1.53 -11.7,3.2 -8.56016,3.81 -18.04992,4.495 -26.95008,7.175 -2.51904,0.32 -2.19496,3.305 -1.27496,4.975 3.52,7.8 6.68,15.755 10.4,23.475 2.08,5.52 3.7352,11.19 5.57496,16.8 5.84088,1.06 11.41504,-1.54 17.17504,-1.9 3.89,-0.3 7.76,-0.785 11.6,-1.475 9.03,-1.27 18.54,-1.45 26.85,-5.65 2.5,-1.03 4.01488,-4.53 2.02504,-6.7 -4.35088,-5.4 -4.92032,-12.55 -7.3,-18.85 -2.19096,-8.8 -6.71504,-16.82 -8.62504,-25.7 z m -304.65,3.85 c 0.56,3.77 0.47,7.7 1.85,11.3 0.86,0.8 1.79,0.885 2.8,0.275 3.38,-1.57 4.55,-6.035 8.45,-6.725 -0.53,3.88 -4.07,6.015 -6.7,8.475 -4.95,4.01 -9.345,8.87 -15.125,11.75 0.95,-2.86 2.745,-5.715 1.875,-8.825 -0.95,-5.1 -1.635,-10.26 -1.775,-15.45 2.87,-0.31 5.745,-0.6 8.625,-0.8 z m 301.72496,3.1 c 3.54072,12.02 7.85016,23.945 9.7,36.375 -3.23984,-3.06 -4.40992,-7.445 -6.6,-11.175 -4.2,-7.42 -7.4,-15.365 -10.3,-23.375 2.31016,-0.89 4.72024,-1.535 7.2,-1.825 z m -277.62496,2.8 c 2.24,11.16 5.675,22.19 6.375,33.6 -3.88,-0.51 -9.305,-1.03 -10.525,-5.55 -1.85,-6.65 -2.725,-13.66 -2.425,-20.55 1.63,-2.93 4.235,-5.15 6.575,-7.5 z m 261.47504,1.175 c 2.18984,6.61 6.13496,12.43 8.87496,18.8 2.34,4.81 5.35512,9.325 6.67496,14.575 -11.34912,-0.1 -22.67496,1.87 -34.02496,0.9 -1.71,-1.19 -2.4,-3.28 -3.3,-5.05 -2.76,-6.6 -5.68,-13.135 -8.55,-19.675 4.22,-2.99 9.45,-3.74 14.25,-5.4 5.36,-1.39 10.4148,-4.17 16.07504,-4.15 z M 564.66004,650.55 c 0.0976,-0.013 0.19718,-0.009 0.3,0 0.23502,0.0214 0.485,0.1175 0.75,0.275 0.3,1.6 0.405,3.235 0.575,4.875 -1.62,-0.42 -3.24,-0.83 -4.85,-1.25 0.86133,-1.10742 1.7605,-3.70409 3.225,-3.9 z m -34.875,7.6 c 0.99,0.49 1.975,0.975 2.975,1.475 -1.98,4.35 -4.25,8.72 -4.95,13.5 -0.12,4.4 1.085,8.7 1.125,13.1 -2.1,-1.01 -5.895,-1.12 -5.825,-4.2 -0.61,-8.5 3.555,-16.245 6.675,-23.875 z m 109,3.05 c 2.02,4.71 3.16,9.735 4,14.775 -6.35,-0.52 -12.45,-2.465 -18.5,-4.325 4.33,-4.14 9.49,-7.22 14.5,-10.45 z m -97.275,1.275 c 1.62,0.24 3.21,0.705 4.8,1.125 -1.82,5.99 -4.17,12.015 -4,18.375 0.09,3.06 0.18496,6.115 -0.025,9.175 -3.9,-2.21 -6.535,-6.15 -7.075,-10.6 -0.68,-6.48 0.24,-14.325 6.3,-18.075 z m 14.6,2.9 c 3.12,-0.03 6.32,-0.085 9.35,0.875 7.38,2.36 15.14,3.535 22.35,6.475 11.43,4.59 23.68,6.27 35.7,8.6 11.21,2.2 21.605,7.625 33.025,8.925 6.71,0.3 13.175,2.57 19.925,2.5 -0.55,5.51 -2.765,10.7 -3.375,16.2 -0.36,3.27 -0.735,6.53 -1.125,9.8 -10.88,-1.46 -21.68,-3.5 -32.55,-4.9 -10.84,-0.97 -21.5,-3.24 -32.05,-5.8 -6.16,-1.18 -12.45,-2.16 -18.25,-4.65 -4.97,-2.12 -10.55,-1.63 -15.6,-3.5 -6.33,-2.23 -13.015,-3.27 -19.325,-5.55 -1.96,-0.53 -2.265,-2.755 -2.925,-4.375 -3.15,-8.42 1.33,-17.07 4.85,-24.6 z m 403.27504,6.75 c 0.85576,-0.01 1.68744,0.1225 2.52496,0.425 4.15,4.93 6.02,11.33 9.25,16.85 4.92,8.4 9.16,17.195 12.7,26.275 1.32,3.63 3.95,7.295 3.05,11.325 -0.66,2.28 -3.55,1.73 -5.2,1.1 -2.67,-2.31 -3.91,-5.755 -5.45,-8.825 -3.77,-8.61 -9.11,-16.43 -12.75,-25.1 -2.65,-7.47 -9.12488,-12.725 -11.77504,-20.225 2.44568,-0.63 5.07976,-1.79547 7.65008,-1.825 z m -38.3,10.225 c 4.14128,-0.0782 8.30744,0.535 12.42496,0.925 5.2,0.26 10.45,0.265 15.55,1.475 2.01,0.27 2.9048,2.275 3.92504,3.775 3.88984,6.57 7.05496,13.55 10.62496,20.3 3.57,6.77 7.6452,13.28 10.72496,20.3 1.33192,3.09 2.91992,6.3 5.65008,8.4 3.67968,1.23 7.33976,-0.475 10.6,-2.075 -4.62032,25.8 -15.84992,51.71 -36.45008,68.7 0.4,-7.5 -1.60024,-14.94 -5.44992,-21.35 -5.66016,-8.89 -8.76992,-19.06 -13.75008,-28.3 -3.13984,-6.89 -7.07976,-13.43 -9.3,-20.7 1.92032,-0.91 4.10504,-1.49 5.67504,-3 0.26,-3.74 -0.06,-7.97 -2.65,-10.9 -3.15,-2.31 -7.28,-1.31 -10.9,-1.6 -1.39,-0.78 -1.84,-2.545 -2.6,-3.825 -4.36,-9.67 -9.82,-18.93 -12.85,-29.15 4.86,-0.92 9.76,-1.835 14.65,-2.625 1.37496,-0.2125 2.74432,-0.3239 4.12504,-0.35 z m -32.67504,4.05 c 1.53848,-0.068 2.98872,0.28687 4.1,1.525 7.77,8.33 13.64504,18.175 18.87504,28.225 7.12968,10.83 11.66016,23.06 17.24992,34.7 3.3924,7.46 7.48992,14.545 11.15008,21.875 3.42968,6.68 5.27976,14.01 6.9,21.3 0.87968,4.06 -0.24992,9.34756 -4.95008,10.25004 -1.95768,-4.79124 -2.22,-10.14004 -4.9,-14.65004 -5.13984,-9.34 -8.47,-19.515 -12.8,-29.225 -6.03984,-9.53 -10.04984,-20.185 -16.4,-29.525 -5.62968,-7.37 -9.50024,-15.87 -14.24992,-23.8 -3.61016,-6.45 -7.82024,-12.56 -10.8,-19.35 1.73768,-0.45562 3.84696,-1.23759 5.82496,-1.325 z m -81.6,1.275 c 0.80472,-0.0242 1.59752,0.0425 2.4,0.25 1.37,1.66 2.66,4.375 1.8,6.475 -9.84,4.1 -20.54,5.275 -30.75,8.125 -11.83,2.98 -23.59,7.685 -36,6.975 4.37,-3.23 9.43,-5.315 14.45,-7.325 7.24,-2.69 14.415,-5.575 21.725,-8.075 6.28004,-2.09 12.87004,-2.975 19.19996,-4.925 2.33264,-0.51 4.76096,-1.42734 7.17504,-1.5 z m 49.75,4.675 c -9.33,4.67 -19.6048,7.15 -28.92504,11.85 -13.07968,7.41 -28.06496,10.31 -41.67496,16.5 -5.81,2.4 -12.01,3.625 -17.7,6.325 7.99,17.85 16.13,35.735 22.15,54.375 6.34,13.35 10.26,27.70832 16.8,40.97504 3.42,7.08984 5.59,14.72496 9.1,21.77496 1.74,3.46 2.36488,7.34496 4.17504,10.77496 2.67968,5.38192 6.62496,10.26504 7.82496,16.27504 0.47,2.1 -0.48,4.71 -2.8,5.15 -2.39,-0.77 -5.01,-1.74 -6.4,-3.95 -5.55,-8.85 -9.23512,-18.66504 -12.92496,-28.37504 -5.38672,-12.04344 -10.14504,-24.3696 -15.57504,-36.4 -4.08,-9.0366 -5.93,-19.05496 -11.15,-27.57496 -1.72,-2.79 -3.025,-5.82 -3.775,-9 -1.61,-6.68 -5.21,-12.635 -7.2,-19.175 -2.29,-7.28 -6.17,-13.92 -8.3,-21.25 -5.32,-0.28 -10.615,0.13 -15.775,1.45 -18.64,2.81 -37.605,2.965 -56.175,6.325 -7.54,1.46 -15.185,1.895 -22.825,2.375 -9.94,1.23 -19.925,2.035 -29.875,3.125 -7.22,0.98 -15.235,-0.91 -21.475,3.85 -1.07,2.49 0.61,4.95 1.55,7.2 3.73,7.41 6.55,15.255 10.35,22.625 2.23,4.32 4.185,8.75 6.025,13.25 6.93,14.15996 11.365,29.485 19.175,43.225 2.66,6.33 5.445,12.6 8.625,18.7 2.81,5.02 2.895,10.94 4.775,16.3 1.34,3.38 -1.7,7.07824 -5.05,7.42504 -2.14,-0.11016 -3.63,-1.96504 -4.9,-3.47504 -3.06,-4.25 -5.24,-9.07 -7.55,-13.75 -6.63,-13.04 -12.85,-26.30504 -17.95,-40.02504 -7.09,-16.15328 -12.515,-32.99996 -19.775,-49.09996 -2.52,-7.34 -4.31,-15.39 -9.45,-21.4 -7.07,-3 -14.735,-4.215 -22.275,-5.475 -2.92,-0.65 -5.89,-0.045 -8.8,0.225 2.48,2.35 4.5,5.225 5.5,8.525 2.29,7.68 6.255,14.74 8.475,22.45 4.36,14.94 10.095,29.47496 17.075,43.37496 4.7,8.21 7.645,17.25504 10.825,26.12504 0.99,2.58 1.625,5.27824 2.125,8.02504 -2.43,0.78984 -5.265,2.32496 -7.575,0.37496 -3.04,-1.13 -3.035,-4.54496 -3.625,-7.22504 -2.19,-1.60576 -3.985,-3.71496 -4.925,-6.27496 -6.43,-16.24 -13.22,-32.36 -19.4,-48.7 -3.71,-10.87 -6.955,-21.9 -11.275,-32.55 -2.47,-5.83 -3.255,-12.25 -6.025,-17.95 -1.21,-2.81 -5.27,-2.36 -6.7,-4.85 -1.62,-3.36 3.37,-5.445 2.4,-8.725 -1.49,-7.85 -4.9,-15.23 -5.75,-23.2 4.4,0.98 8.715,2.31 13.025,3.65 1.49,5.01 2.83,10.06 3.8,15.2 0.66,3.74 1.975,7.52 4.725,10.25 3.67,2.38 8.155,2.975 12.325,4.025 3.34,0.92 6.83,0.7 10.25,0.45 -3.74,-7.37 -3.62,-15.95 -7.25,-23.35 5.24,-0.7 10.46,0.485 15.4,2.175 1.96,6.08 2.73,13.035 7.2,17.925 1.33,1.61 3.535,0.69 5.275,0.6 9.87,-1.45 19.845,-1.965 29.825,-2.125 7.23,0.4 14.3,-1.42 21.45,-2.2 10.27,-2.8 20.79,0.44 31.1,1.25 6.85,0.45 13.575,2.24 20.475,2.05 2.88,-0.01 5.515,-1.41 7.925,-2.85 3.59,-2.18 4.955,-6.38 7.575,-9.45 2.57,-1.18 5.465,-1.255 8.225,-1.725 17.99,-2.42 35.74,-6.285 53.3,-10.875 15.15,-3.29 28.92512,-11.93 44.67496,-12.5 5.85656,-0.49 11.57504,-1.885 17.32504,-3.025 z m -170.975,2.3 c 1.76625,-0.082 3.5325,0.605 5.175,1.25 -1.67,4.34 -4.65,8.26 -5.15,13 -0.55,3.86 -0.48,7.775 -0.65,11.675 -1.96,-0.48 -5.045,0.09 -5.675,-2.45 -2.72,-7.82 -0.075,-16.54 4.525,-23.1 0.5825,-0.2275 1.18625,-0.34766 1.775,-0.375 z m 190.925,0.35 c 5.8,8.87 12.11,17.435 17,26.875 5.14,9.27 9.40496,19.035 15.12496,27.975 3.63192,5.28 6.54008,11.005 9.4,16.725 6.2436,13.13 12.89008,26.08824 18.3,39.60004 1.99352,4.96992 8.40984,6.51496 12.95008,4.07496 -4.19352,4.65 -8.13504,9.58 -13.22504,13.3 -5.42,3.8 -10.3352,8.35504 -16.07496,11.67496 -7.27032,3.51016 -12.79976,9.65984 -19.95008,13.35008 -9.70648,5.77968 -18.17976,13.52496 -28.2,18.77496 -9.65648,4.02 -19.13984,8.44 -28.9,12.2 -3.88984,1.84 -7.98984,3.25 -12.3,3.6 2.67032,-2.22 6.37504,-4.36 6.52504,-8.25 0.56,-4.78 -2.79,-8.61 -5.2,-12.35 -2.47,-3.55 -4.01,-7.6 -5.4,-11.65 -2.18,-7 -6.8,-12.92 -9.05,-19.9 -3.84,-11.55 -8.06,-22.95 -12.8,-34.15 -1.78,-4.44 -3.93,-8.815 -4.65,-13.575 1.83,0.12 3.65,0.305 5.5,0.475 l 0.2,-2.45 c -2.66,-0.22 -5.29504,-0.475 -7.92504,-0.725 -6.6,-17.31 -15.54496,-33.605 -21.97496,-50.975 2.86,-1.36 6.02324,-1.63 9.12504,-1.1 3.32992,0.6 6.17992,-1.615 9.24992,-2.475 11.52008,-3.26 22.66024,-7.715 34,-11.525 7.43192,-3.24 15.39008,-5.25 22.4,-9.4 3.53192,-2.13 7.50984,-3.27 11.35008,-4.7 4.85648,-1.76 9.42496,-4.33 14.52496,-5.4 z m -169.95,1.2 c 2.0975,-0.0687 4.335,0.335 6.3,0.35 -1.83,5.28 -5.18,9.96 -6.25,15.5 -0.76,3.92 -0.71,7.935 -0.95,11.925 -4.4,-0.23 -8.885,-0.725 -12.875,-2.725 2.54,-7.56 3.085,-16.255 8.375,-22.575 1.365,-1.88 3.3025,-2.40625 5.4,-2.475 z m 275.9,0.05 c 7.57,5 12.14,13.11 17.5,20.2 5.33996,10.52 7.44996,23.23 3.84996,34.65 -2.19,7.59 -4.30996,15.27 -7.99996,22.3 -8.28,14.66 -15.22488,30.50504 -27.47504,42.42496 -12.4,10.98 -24.42976,22.53 -38.4,31.55008 -10.10576,6.51808 -19.98496,13.37496 -29.82496,20.27496 -6.06,5.11 -13.83512,7.22 -21.12496,9.9 -10.72032,3.07 -21.17976,6.9664 -31.35008,11.52504 -9.66808,4.12968 -20.23496,5.26496 -29.97496,9.17496 -15.54,5.65 -31.96504,8.02496 -48.175,10.87496 -8.69,2.16016 -17.605,3.02008 -26.525,3.5 -16.83,2.08192 -33.945,0.43504 -50.375,-3.52496 -11.43,-2.96 -23.315,-3.33488 -34.775,-6.07504 -11.54,-1.08984 -22.785,-4.78496 -32.875,-10.47496 -7.04,-3.89 -15.02,-7.85 -18.45,-15.6 -1.59,-2.77 -1.29,-5.99496 -0.95,-9.02504 10.14,3.42032 18.595,10.88992 29.275,12.85008 8.87,1.84344 16.99,5.95496 25.2,9.62496 11.8,4.01 24.1,6.7964 36.55,7.67504 8.67,0.60576 17.22,2.61496 25.95,2.37496 5.02,0.18 9.955,-0.88488 14.975,-0.92504 10.5,-0.10576 21.065,-0.18984 31.475,-1.7 9.61,-1.11808 19.39,-0.96496 28.8,-3.47496 11.9,-2.07 23.84528,-4.24352 35.47496,-7.57496 12.6,-4.34424 25.70504,-7.47504 37.67504,-13.47504 14.18,-5.99 27.47,-13.95688 40.1,-22.72496 7.21,-4.04424 14.5348,-8.01992 21.17504,-12.95008 7.20576,-6.80576 15.87968,-12.02016 22.2,-19.74992 2.63984,-2.98008 6.16008,-5.08024 8.54992,-8.3 4.93192,-7.36016 10.71,-14.12004 15.75008,-21.40004 4.20576,-6.89 7.06496,-14.485 10.37496,-21.825 5.77,-13.23 7.93,-27.915 6.9,-42.275 -0.22,-2.26 -1.3848,-4.24 -2.32504,-6.25 -3.64344,-7.24 -6.78496,-14.735 -11.17496,-21.575 z m -260.4,0.975 c 1.07203,-0.0928 2.1425,0.4 2.6,1.525 2.16,7.32 1.745,15.345 -0.975,22.475 -1.04,2.87 -3.255,5.35 -6.175,6.4 -2.09,-0.54 -5.12,-1.97 -4.5,-4.6 0.33,-4.43 2.045,-8.605 2.475,-13.025 0.48,-4.55 1.485,-9.73 5.525,-12.5 0.34,-0.155 0.69266,-0.24406 1.05,-0.275 z m -143.825,12.475 c 1.62,5.46 3.495,10.865 4.275,16.525 -3.1,-0.88 -6.26,-1.625 -9.1,-3.175 -1.38,-3.22 -4.435,-8.15 -0.675,-10.8 1.43,-1.55 3.39,-2.42 5.5,-2.55 z m 32.825,7.05 c 4.67,0.49 9.33,1.24 13.8,2.75 8,2.79 16.7,2.135 24.75,4.825 -4.38,0.18 -8.73,0.3 -13.1,0.2 -7.35,-0.08 -14.945,1.175 -22.075,-1.225 -2.99,-0.52 -2.575,-4.33 -3.375,-6.55 z m 308.42504,4.15 c 2.70784,1.95 4.07976,5.005 4,8.325 -2.35232,-2.18 -3.68,-5.165 -4,-8.325 z m -63.12504,4.075 c -1.27872,0.0327 -2.55728,0.19375 -3.82504,0.475 0.27032,2.11 0.97504,4.29 3.07504,5.25 2.61,-1.08 5.03496,-2.57 7.67504,-3.6 -0.14256,-0.34 -0.43504,-1.025 -0.57504,-1.375 -2.1,-0.51875 -4.21872,-0.8045 -6.35,-0.75 z m -35.97496,9.125 c -2.59136,0.1875 -4.96312,2.21446 -6.87504,3.875 -3.3,2.5 -4.52,7.685 -1.65,10.975 5.2,-1.14 10.12,-4.085 13.2,-8.475 1.63,-2.16 0.27,-5.205 -2.2,-5.925 -0.66376,-0.28687 -1.30616,-0.43381 -1.95,-0.45 -0.1744,-0.004 -0.3524,-0.0125 -0.52496,0 z m 134.44992,2.125 c -1.65368,-0.025 -3.30496,0.13 -4.92496,0.375 -6.14,0.43 -6.84504,11.35 -0.42496,11.75 4.31,0.59 8.7,-1.705 11.4,-4.975 0.57992,-2.07 1.09,-5.34 -1.15008,-6.55 -1.60496,-0.385 -3.24624,-0.575 -4.9,-0.6 z M 751.51004,738.6 c 2.1,1.37 3.315,3.66 4.675,5.7 5.53,9.46 9.615,19.65 14.475,29.45 5.38,12.46 10.70168,24.93832 15.62504,37.57496 4.86,14.75008 12.2596,28.46504 18.1,42.82504 1.61808,3.91 1.72,8.35 3.9,12.05 2.12968,3.76 3.94984,7.69 5,11.9 0.58984,3.09 3.06496,5.18496 5.17496,7.32496 -6.01,0.27032 -11.92512,1.41976 -17.77496,2.75008 -4.77,1.01808 -9.25504,3.21496 -14.17504,3.47496 -7.01,0.52 -13.975,1.90832 -21.025,1.62504 -4.7,-0.14424 -9.275,1.17496 -13.925,1.62496 -8.65,1.22 -17.38,-0.18488 -26.05,0.62496 -13.33,0.97032 -26.54,-1.77976 -39.4,-5 -7.71,-1.4 -15.52,-2.76496 -22.65,-6.17496 3.48,-2.71 7.71,-4.73488 10.2,-8.52504 2.31,-9.02968 -4.205,-16.65992 -7.525,-24.44992 -6.44,-14.34424 -14.025,-28.26504 -18.575,-43.37504 -0.94,-3.15 -3.04,-5.74 -4.45,-8.65 -1.48,-3.04 -2.5,-6.245 -3.6,-9.425 3.76,-6.93 9.8,-12.075 15.2,-17.675 6.94,-6.82 14.14,-13.48 22.5,-18.55 4.49,-2.49 7.6,-7.585 13.15,-7.825 12.8,-1.12 25.56,-2.59 38.35,-3.85 7.66,-0.7 15.07,-3.395 22.8,-3.425 z m 69,0.275 c -1.53,2.02 -3.51,3.695 -6.05,4.225 1.65,-1.88 3.74,-3.275 6.05,-4.225 z m -237.95,7.6 c 2.51,0.19 5,0.51 7.5,0.85 0.42,3.95 0.93,7.945 2.4,11.675 3.2,8.32 5.025,17.085 8.475,25.325 2.44,5.7 4.335,11.64324 5.675,17.69996 0.67,2.41016 -0.15,4.85008 -0.7,7.2 -5.41,-8.13 -7.725,-17.90496 -11.575,-26.82496 -2.21,-7.52 -6.07,-14.39 -8.8,-21.7 -0.76,-4.79 -1.365,-9.615 -2.975,-14.225 z m 77.85,2.625 c -4.49,1.27 -7.79,4.68 -11,7.85 -5.39,5.42 -11.87,9.68 -16.6,15.75 -1.2,-3.14 -2.23,-6.33 -3.45,-9.45 -1.44,-4.21 -5.6,-7.06 -5.95,-11.7 12.26,-1.66 24.63,-2.26 37,-2.45 z m 214.05,3.25 c -1.67192,0.0511 -3.34128,0.19379 -4.87496,0.025 -0.82032,2.6 -1.44992,5.445 -0.55008,8.125 4.16016,5.12 14.78504,0.895 12.97504,-5.925 -1.58504,-1.72 -3.67728,-2.16375 -5.87504,-2.225 -0.54656,-0.0153 -1.11768,-0.017 -1.67496,0 z m -33.45,1.55 c -0.69952,0.0442 -1.3904,0.19875 -2.07504,0.45 -2.1472,1.83 -2.85496,4.71 -3.67496,7.3 -0.88,3.1 -0.71488,7.4 2.67496,8.9 4.91016,2.47 10.12504,-1.215 13.12504,-4.975 2.34,-2.6 1.3048,-6.79 -1.47496,-8.6 -2.44024,-1.69 -5.54384,-3.26645 -8.57504,-3.075 z m 3.25,6.65 c 0.54968,-0.0389 1.13688,0.02 1.75,0.2 -1.05,2.8 -3.8452,4.015 -6.62496,4.325 0.74472,-2.32375 2.4932,-4.35666 4.87496,-4.525 z m -92.7,13.425 c 0,3.04 2.405,4.645 4.825,5.925 0.24,-0.46 0.735,-1.39 0.975,-1.85 -1.58,-1.83 -3.44,-3.405 -5.8,-4.075 z m -32.825,0.525 c -2.53375,0.009 -5.155,0.56 -7.525,0.95 -5.88,1.44 -12.46,1.885 -17.25,5.975 -2.37,1.96 -4.665,4.06 -6.475,6.55 -0.64,1.02 -1.3,3.165 0.45,3.525 2.72,1.02 6.63,1.455 8.35,-1.475 -2.04,-0.26 -4.07,-0.425 -6.1,-0.625 3.81,-5.64 9.995,-10.01 16.825,-10.85 -2.86,4.03 -7.03,6.985 -9.3,11.475 1.33,3.82 4.59,7.02 8.8,7.25 9.22,-0.26 18.12,-6.115 21.95,-14.525 1.53,-2.5 -1.06,-4.485 -2.75,-5.925 -1.995,-1.785 -4.44125,-2.33375 -6.975,-2.325 z m 0.375,2.775 c 2.1811,-0.038 4.3725,0.605 5.475,2.675 1.81,2.15 0.11,4.92 -1.5,6.6 -3.61,4.56 -8.935,7.655 -14.675,8.525 -3.34,0.52 -6.85,-2.46 -6.55,-5.9 0.83,-2.77 3.08,-4.825 5.35,-6.475 3,-2.14 6.12,-4.31 9.75,-5.2 0.685,-0.1425 1.42297,-0.21234 2.15,-0.225 z m -4.4,4.1 c -1.23106,0.0504 -2.40625,0.43875 -3.4,1.425 -2.68,1.86 -3.95,6.505 -0.65,8.425 4.89,0.74 9.415,-3.395 10.075,-8.125 -1.78125,-0.90625 -3.97324,-1.80898 -6.025,-1.725 z m 1.7,2.625 c 1.45642,0.10302 1.74156,2.63496 -0.025,2.925 -1.99,0.75 -2.565,-2.49 -0.625,-2.8 0.12562,-0.0462 0.23554,-0.0829 0.35,-0.1 0.10731,-0.016 0.2029,-0.0319 0.3,-0.025 z m 181.3,5.125 c -1.05296,0.008 -2.09376,0.32875 -3.05,1.075 -2.42,0.78 -1.73512,3.38 -1.77496,5.35 2.29704,0.08 4.71016,0.54 6.94992,-0.25 1.44288,-1.04 2.01024,-2.84 2.9,-4.3 -1.46808,-1.0625 -3.27008,-1.88916 -5.02496,-1.875 z m -204.925,9.075 c -3.06,0.31 -5.99,1.26 -8.9,2.2 -0.04,0.64 -0.095,1.9 -0.125,2.55 3.33,-0.8 7.105,-1.58 9.025,-4.75 z m 72.775,0.625 c -5.6469,0.14984 -10.47,5.0058 -12.15,10.25004 -0.83,2.61992 -0.13,6.25496 2.55,7.52496 4.66,1.4 9.07,-2 11.8,-5.45 2.8,-3.54 0.61,-8.14 0.25,-12.1 -0.83375,-0.18375 -1.6433,-0.24641 -2.45,-0.225 z m -39.55,2.375 c -0.14308,0.012 -0.28188,0.044 -0.425,0.0752 -5.57,0.67992 -8.585,6.02992 -11.775,10 -2.21,2.44992 -0.58496,5.77496 0.025,8.52496 4.31,-1.02 8.845,-2.21808 12.175,-5.32496 3,-2.76016 4.06,-6.84024 5.2,-10.6 -1.4175,-1.15512 -2.89142,-2.6388 -4.775,-2.67504 -0.13454,0 -0.28192,-0.012 -0.425,0 z m -2.05,4.17504 c 0.9041,-0.0168 1.8875,0.33112 2.775,0.4 -2.59,3.68984 -5.615,7.79 -10.375,8.6 1.29,-3.26016 3.22,-6.34504 6.1,-8.42504 0.45,-0.42752 0.95754,-0.56816 1.5,-0.57496 z m 132.12504,1.64992 c -1.06016,-0.0176 -2.13192,0.1088 -3.22504,0.37504 -5.57,0.75 -10.12504,5.20504 -11.62504,10.52496 -2.25696,6.02008 -2.03984,13.21992 1.8,18.55008 6.37032,5.43984 15.79008,7.87496 23.8,4.77496 3.65312,-1.38 7.84504,-2.32 10.37504,-5.55 3.81,-4.66 6.91,-10.87 5.6,-17 -3.97,-3.49 -9.3,-4.51 -13.8,-7.05 -4.03816,-2.1044 -8.3316,-4.55016 -12.92496,-4.62504 z m 1.5,3.12504 c 1.35864,-0.0648 2.80624,0.21248 4.12496,0.15 -0.77,2.9 -3.43,4.57 -4.9,7.05 -1.93,3.7 1.34,8.89312 5.6,8.32504 4.05,-0.15304 7.23496,-3.08504 9.17504,-6.42504 0.42968,2.09 1.92496,4.28496 0.72496,6.37496 -2.27,5.92032 -9.60496,9.53016 -15.62496,7.5 -7.36016,-4.68984 -7.58504,-16.55008 -1.42504,-22.34992 0.70872,-0.4276 1.508,-0.5864 2.32504,-0.62504 z m -9.32504,2.6 c -0.14,4.26 -1.16504,8.60496 -0.17496,12.82504 1.43984,4.25712 4.52496,8.33496 8.92496,9.77496 5.7,1.07 11.41488,-1.71 15.97504,-4.9 3.65704,-2.97 3.46496,-7.968 2.82496,-12.17496 1.13,0.38 2.25,0.76048 3.4,1.14992 -0.0104,3.55304 0.28,7.39976 -1.7,10.55008 -2,3.16808 -4.41504,6.40024 -7.82496,8.14992 -5.18192,1.82032 -10.93504,3.07504 -16.27504,1.12504 -6.21,-1.11 -9.3952,-7.578 -10.12496,-13.27496 -1.01016,-5.01016 2.17496,-9.42504 4.97496,-13.22504 z m -231.175,2.6 c 1.42284,-0.0184 1.63438,1.76544 2.225,2.82504 3.93,10.3556 7.755,20.75976 12.225,30.9 2.32,6.03984 5.14,11.90496 8.45,17.47496 2.33,3.62 5.415,6.68 7.625,10.4 -12.12,-3.77 -24.1,-8.30504 -35.3,-14.32504 3.77,-3.88984 9.67,-6.05496 11.4,-11.62496 -3.1,-7.18 -7.705,-13.71 -10.375,-21.1 0.01,-5.01 1.55,-9.94152 3.45,-14.52496 0.10625,-0.0184 0.20514,-0.024 0.3,-0.0248 z m 247.875,2.22504 c 0.89984,0.0696 1.78104,1.08992 1.02504,2.02496 -0.89304,1.43 -3.20504,-0.12 -2.12504,-1.45 0.26872,-0.44688 0.69096,-0.60736 1.1,-0.57496 z M 687.08504,838.4 c -1.04,0.0104 -2.065,0.02 -3.075,0.0496 -0.02,0.55 -0.03,1.65 -0.05,2.2 1.09,0.0496 2.19,0.095 3.3,0.17496 -0.04,-0.60736 -0.135,-1.81496 -0.175,-2.42496 z m 46.6,0.32496 c -2.66795,0.14856 -4.78125,2.30632 -6.65,4.17504 0.15,0.7 0.425,2.11 0.575,2.8 2.33,-0.2 4.675,-0.39768 7.025,-0.52496 0.6,-2.01016 1.12,-4.09024 1,-6.2 -0.67687,-0.21016 -1.33432,-0.28376 -1.95,-0.25008 z m 38.825,1.5 c -1.59,2.19288 -2.105,4.79976 -1.525,7.45008 2.81,0.34704 4.775,-1.54504 6.275,-3.67504 -1.36,-1.54 -2.94,-2.84488 -4.75,-3.77504 z M 763.26004,871 c 0.57,1.12 0.85,2.51 1.9,3.35 5.77,4.36 13.25,5.67 20.35,5 -4.26,1.31 -8.4,3.39496 -12.95,3.27496 -5.41,0.0528 -9.755,-4.30496 -15.175,-4.07496 -4.34,-0.04 -7.985,-2.88784 -12.175,-3.67496 1.36,4.85712 7.03,5.17016 11.1,6.24992 4.54,0.78192 8.47,3.75504 13.15,3.77504 8.85,0.44 17.55,-3.1 24.25,-8.75 -5.7,0.38 -11.415,1.96 -17.125,0.9 -5.03,-0.63 -8.445,-4.97 -13.325,-6.05 z m -30.95,9.02496 c 0.82,3.95272 5.025,3.58968 8.175,3.75008 -2.4,-1.87032 -5.005,-3.68 -8.175,-3.75008 z m -5.95,6.32504 c 0.93,1.1 1.55,2.94 3.25,3 2.35,-0.25 4.625,-1.00688 6.925,-1.57496 -3.37,-0.66016 -6.745,-1.33504 -10.175,-1.42504 z"
     id="chicken"
     inkscape:connector-curvature="0" />
</svg>
